<svg xmlns="http://www.w3.org/2000/svg" width="44" height="38" fill="#f99206" xmlns:v="https://vecta.io/nano"><path d="M10.916 15.166c1.722 5.716 6.252 9.433 10.119 8.3.335-.099.66-.233.967-.4.307.167.632.301.967.4 3.867 1.131 8.4-2.586 10.119-8.3s-.406-9.977-4.273-11.107a6.55 6.55 0 0 0-5.254.681 8.72 8.72 0 0 1 1.768-2.67L23.774.589a10.42 10.42 0 0 0-2.623 4.628 6.64 6.64 0 0 0-2.841-1.302c-1.037-.202-2.108-.153-3.122.143-3.867 1.131-5.994 5.392-4.272 11.108zm16.587-7.877a3.9 3.9 0 0 1 2.369 1.9 5.63 5.63 0 0 1 .546 2.146c.038.744-.071 1.489-.323 2.19l-1.541-.472a4.06 4.06 0 0 0-.1-3.1 2.27 2.27 0 0 0-1.4-1.118l.449-1.546zM8.594 25.503h4.29v11.908h-4.29V25.503zm-8.071 0h6.46v11.908H.523V25.503zM14.496 37.41H43.48V25.502H14.496V37.41zm11.8-8.294h13.02v4.68H26.295l.001-4.68z"/></svg>