<svg xmlns="http://www.w3.org/2000/svg" width="34" height="29" fill="#00a94f" xmlns:v="https://vecta.io/nano"><path d="M12.896 25.929H.707v2.423h15.44a3.4 3.4 0 0 0-3.251-2.423zM21.437.703a3.21 3.21 0 0 0-3.209 3.208v21.3a5.31 5.31 0 0 1 3.392-1.221h12.189V.703H21.437zm9.3 17.5h-1.94V17.19a4.67 4.67 0 0 1-2.381.872c-.859.066-1.719-.107-2.486-.499a4.67 4.67 0 0 1-1.86-1.723 4.68 4.68 0 0 1 0-4.882 4.67 4.67 0 0 1 1.86-1.723c.767-.392 1.627-.565 2.486-.499a4.68 4.68 0 0 1 2.381.872V8.602h1.94v9.601zM18.369 28.351h15.44v-2.422H21.62a3.4 3.4 0 0 0-3.251 2.422zM6.528 14.501h3.93L8.502 9.317l-1.974 5.184zm19.526-3.838c-.541 0-1.071.16-1.521.461a2.74 2.74 0 0 0 .987 4.962c.531.106 1.082.051 1.582-.156a2.74 2.74 0 0 0 1.229-1.008c.301-.45.461-.98.461-1.521a2.74 2.74 0 0 0-2.738-2.738zM13.079.703H.707V23.99h12.189a5.31 5.31 0 0 1 3.392 1.221v-21.3A3.21 3.21 0 0 0 13.079.703zm-1.226 17.5l-.663-1.759h-5.4l-.67 1.759H3.044l4.54-11.922h1.843l4.5 11.924-2.074-.002z"/></svg>