<svg width="180" height="128" viewBox="0 0 180 128" fill="none" xmlns="http://www.w3.org/2000/svg">
<mask id="mask0_3_4744" style="mask-type:luminance" maskUnits="userSpaceOnUse" x="0" y="0" width="180" height="128">
<path d="M180 0H0V128H180V0Z" fill="white"/>
</mask>
<g mask="url(#mask0_3_4744)">
<mask id="mask1_3_4744" style="mask-type:luminance" maskUnits="userSpaceOnUse" x="-21" y="-25" width="199" height="200">
<path d="M-20.8125 -24.5547H177.82V174.138H-20.8125V-24.5547Z" fill="white"/>
</mask>
<g mask="url(#mask1_3_4744)">
<path d="M157.756 234.638L28.729 234.447L28.6801 234.445L28.6821 234.388L28.7386 229.714L30.9774 40.836L31.0314 36.2345L31.036 36.1055L31.142 36.1041L134.686 36.2559L134.833 36.3391L142.992 41.0002L159.884 50.6464L157.811 229.903L157.756 234.638Z" fill="#F3F8FA"/>
<path d="M157.756 234.637L28.6499 234.508L28.6009 234.507L28.6029 234.45L30.8923 36.0967L30.8969 35.9678L31.0029 35.9664L134.674 36.1666L134.692 36.1673L134.705 36.1727L159.903 50.5742L159.937 50.5914L159.936 50.6323L157.806 229.896L157.756 234.637ZM157.756 234.637L157.815 229.906L159.825 50.6386L159.858 50.7017L134.65 36.326L134.681 36.332L31.0067 36.2278L31.1173 36.0965L28.6999 234.45L28.654 234.391L157.756 234.637Z" fill="#263238"/>
<path d="M31.0281 36.1053L31.0236 36.2342L31.1282 36.1027L31.0281 36.1053ZM28.6817 234.384L28.6797 234.441L28.7276 234.443L28.6817 234.384ZM28.786 229.712L31.0758 40.8353L31.1335 36.234L31.0236 36.2342L30.9657 40.8375L28.7381 229.71L28.6817 234.384L28.7297 234.386L28.786 229.712ZM134.683 36.2606L31.1342 36.1039L31.1296 36.2329L134.83 36.3438L134.683 36.2606ZM28.7297 234.386L28.7276 234.443L157.763 234.639L28.7297 234.386Z" fill="#263238"/>
<path d="M137.68 36.4662L145.509 41.6109L45.1913 41.456L35.5788 41.4538L30.9443 41.4491L30.8362 41.4514L30.8974 36.5045L30.9023 36.365L31.0105 36.3628L137.53 36.3776L137.68 36.4662Z" fill="#455A64"/>
<path d="M104.578 54.7102L42.7256 54.3008L42.1358 132.001L103.988 132.41L104.578 54.7102Z" fill="#BDC8D1"/>
<path d="M140.691 54.0997L113.39 53.918L113.376 55.7751L140.677 55.9569L140.691 54.0997Z" fill="#455A64"/>
<path d="M112.41 64.2982C115.868 64.2164 119.329 64.173 122.79 64.1407L133.167 64.0929L143.545 64.1501C147.004 64.1812 150.463 64.2225 153.92 64.308C150.462 64.3959 147 64.4332 143.543 64.4656L133.167 64.5093L122.788 64.4592C119.325 64.4249 115.867 64.3837 112.41 64.2982Z" fill="#A6A6A6"/>
<path d="M112.394 70.2318C115.852 70.1499 119.314 70.1066 122.77 70.0741L133.147 70.0263L143.525 70.0835C146.984 70.1147 150.441 70.1558 153.898 70.2414C150.44 70.3232 146.979 70.3666 143.518 70.3989L133.141 70.4426L122.764 70.3925C119.31 70.3585 115.851 70.3173 112.394 70.2318Z" fill="#A6A6A6"/>
<path d="M112.16 76.1654C115.618 76.0835 119.079 76.0402 122.535 76.0077L132.912 75.9599L143.29 76.0171C146.749 76.0483 150.207 76.0894 153.664 76.175C150.206 76.2568 146.744 76.3002 143.288 76.3327L132.912 76.3764L122.534 76.3263C119.075 76.2921 115.617 76.2509 112.16 76.1654Z" fill="#A6A6A6"/>
<path d="M112.013 81.3936C114.128 81.3206 116.24 81.299 118.353 81.2765C120.466 81.2539 122.582 81.2708 124.695 81.2714C126.805 81.2992 128.926 81.3112 131.032 81.361C133.139 81.4109 135.258 81.4622 137.372 81.5637C135.257 81.6367 133.145 81.6643 131.032 81.6809C128.919 81.6974 126.802 81.6875 124.691 81.686C122.58 81.6582 120.463 81.6463 118.352 81.5963C116.242 81.5463 114.127 81.4891 112.013 81.3936Z" fill="#A6A6A6"/>
<path d="M111.785 92.2669C115.243 92.1851 118.704 92.1417 122.16 92.1092L132.537 92.0615L142.915 92.1187C146.373 92.1498 149.832 92.191 153.289 92.2765C149.831 92.3644 146.369 92.4017 142.913 92.4342L132.537 92.4779L122.159 92.4278C118.7 92.3937 115.242 92.3525 111.785 92.2669Z" fill="#A6A6A6"/>
<path d="M111.66 98.1966C115.118 98.1148 118.579 98.0714 122.035 98.0389L132.412 97.9912L142.79 98.0484C146.249 98.0795 149.707 98.1207 153.164 98.2062C149.706 98.288 146.244 98.3314 142.783 98.3637L132.407 98.4074L122.029 98.3574C118.575 98.3234 115.117 98.2821 111.66 98.1966Z" fill="#A6A6A6"/>
<path d="M111.535 103.283C114.993 103.201 118.454 103.157 121.915 103.125L132.292 103.077L142.67 103.134C146.129 103.166 149.588 103.207 153.045 103.292C149.587 103.38 146.125 103.418 142.664 103.45L132.288 103.494L121.909 103.443C118.45 103.409 114.992 103.368 111.535 103.283Z" fill="#A6A6A6"/>
<path d="M111.3 109.212C114.758 109.13 118.22 109.087 121.676 109.055L132.053 109.007L142.424 109.064C145.884 109.095 149.343 109.136 152.8 109.222C149.34 109.309 145.88 109.347 142.423 109.379L132.046 109.423L121.669 109.373C118.215 109.339 114.757 109.298 111.3 109.212Z" fill="#A6A6A6"/>
<path d="M111.286 114.44C113.401 114.368 115.513 114.346 117.626 114.323C119.739 114.301 121.856 114.318 123.968 114.318C126.078 114.346 128.199 114.358 130.306 114.408C132.412 114.458 134.532 114.509 136.645 114.611C134.53 114.684 132.418 114.711 130.305 114.728C128.193 114.744 126.076 114.734 123.964 114.733C121.853 114.705 119.736 114.693 117.626 114.643C115.515 114.593 113.4 114.542 111.286 114.44Z" fill="#A6A6A6"/>
<path d="M136.907 36.2773L159.55 50.4305L149.807 55.8826L136.907 36.2773Z" fill="#DBDBDB"/>
<path d="M102.041 44.1394C102.031 44.0813 102.025 44.0224 102.024 43.9633C102.018 43.8342 102.01 43.6608 101.996 43.4468C101.977 42.9783 101.949 42.3111 101.91 41.4584C101.882 40.5884 101.841 39.5336 101.797 38.3099C101.792 37.6572 101.749 37.0053 101.667 36.3578C101.618 36.0117 101.508 35.6771 101.342 35.3696C101.168 35.0518 100.893 34.8006 100.561 34.655C100.196 34.5178 99.8007 34.4788 99.4153 34.5417C99.0299 34.6046 98.6676 34.7674 98.3643 35.0138C97.7161 35.5818 97.2633 36.34 97.0706 37.1802C96.6246 39.0552 96.5147 40.9942 96.746 42.9071C96.8356 43.9189 96.9362 44.9658 97.074 46.024C97.185 47.0991 97.4694 48.1489 97.9162 49.1326C98.3948 50.1397 99.2112 50.9467 100.223 51.4129C100.734 51.6435 101.298 51.7338 101.855 51.6746C102.419 51.6058 102.953 51.3823 103.398 51.0288C104.284 50.2989 104.888 49.2816 105.104 48.1533C105.305 47.0485 105.374 45.9238 105.311 44.8028C105.258 42.5774 105.208 40.4344 105.163 38.3883C105.138 37.3674 105.116 36.3711 105.096 35.3994C105.076 34.4298 105.063 33.4889 104.966 32.5929C104.896 31.7258 104.707 30.8725 104.405 30.057C104.121 29.309 103.675 28.6333 103.099 28.0788C102.073 27.1469 100.746 26.6158 99.3608 26.5824C98.3167 26.5237 97.2819 26.8091 96.4148 27.395C95.8794 27.7843 95.4535 28.3054 95.1786 28.9078C94.9956 29.3236 94.943 29.557 94.9294 29.5518C94.9747 29.3229 95.0451 29.0998 95.1393 28.8864C95.4003 28.2639 95.8241 27.7233 96.3661 27.3215C97.2433 26.7034 98.3015 26.3966 99.3724 26.4499C100.796 26.4703 102.164 27.0053 103.224 27.9561C103.82 28.525 104.284 29.2188 104.581 29.988C104.895 30.8179 105.092 31.6876 105.166 32.5721C105.264 33.4843 105.282 34.4277 105.308 35.3958C105.333 36.3639 105.36 37.3602 105.384 38.3814C105.439 40.4233 105.493 42.5717 105.55 44.7976C105.618 45.9369 105.548 47.0804 105.342 48.2032C105.114 49.3866 104.481 50.4534 103.55 51.2188C103.07 51.5992 102.493 51.8382 101.885 51.9091C101.285 51.9736 100.679 51.8764 100.13 51.6277C99.0707 51.135 98.217 50.2867 97.7171 49.2297C97.2602 48.2225 96.9691 47.1477 96.8553 46.0471C96.7193 44.9801 96.6233 43.9386 96.5345 42.9167C96.3054 40.9772 96.4254 39.012 96.8889 37.1142C97.0978 36.234 97.5823 35.4435 98.2716 34.8581C98.601 34.5943 98.9938 34.4216 99.4106 34.3573C99.8274 34.293 100.254 34.3393 100.647 34.4917C101.009 34.656 101.308 34.9332 101.499 35.2819C101.673 35.6071 101.788 35.9604 101.839 36.3255C101.916 36.9803 101.951 37.6393 101.945 38.2987C101.975 39.5222 101.997 40.5793 102.017 41.4485C102.036 42.3177 102.043 42.97 102.052 43.4386C102.051 43.6584 102.055 43.8294 102.057 43.9581C102.055 44.0188 102.049 44.0793 102.041 44.1394Z" fill="#263238" stroke="#263238"/>
<path d="M94.2425 107.599L91.2163 103.937L54.8104 110.882C54.8104 110.882 51.4807 126.346 51.5993 127.364C51.5866 128.657 51.468 129.946 51.2446 131.22L100.605 131.668C100.601 131.659 102.342 118.397 94.2425 107.599Z" fill="#263238"/>
<path d="M63.8603 118.639C63.8029 118.778 63.7239 118.906 63.6264 119.02C63.4566 119.252 63.2071 119.58 62.8686 119.967C62.4728 120.426 62.0256 120.838 61.536 121.194C60.9242 121.625 60.2339 121.932 59.5044 122.097C58.1958 122.395 56.8475 122.478 55.5128 122.341C55.1109 122.304 54.7113 122.245 54.3161 122.164C54.1663 122.151 54.0203 122.11 53.8852 122.045C53.8936 122.004 54.5178 122.095 55.5246 122.152C56.8382 122.229 58.1564 122.122 59.4408 121.834C60.1397 121.677 60.8034 121.392 61.3977 120.991C61.8786 120.652 62.3242 120.266 62.7278 119.837C63.429 119.106 63.8232 118.611 63.8603 118.639Z" fill="#455A64"/>
<path d="M74.5181 131.452C74.4619 131.292 74.4299 131.125 74.4231 130.956C74.3792 130.634 74.3231 130.166 74.2705 129.593C74.1624 128.436 74.052 126.833 74.013 125.064C73.9739 123.294 74.012 121.688 74.0725 120.527C74.103 119.95 74.1375 119.479 74.1656 119.159C74.1654 118.989 74.191 118.819 74.2414 118.657C74.2878 119.281 74.2945 119.908 74.2614 120.533C74.2562 121.689 74.2398 123.29 74.2801 125.055C74.3205 126.821 74.4008 128.415 74.4609 129.571C74.5208 130.196 74.5399 130.824 74.5181 131.452Z" fill="#455A64"/>
<path d="M77.9868 130.931C77.9147 130.931 77.8472 128.258 77.8344 124.961C77.8217 121.663 77.8704 118.993 77.9471 118.995C78.0239 118.997 78.0868 121.668 78.097 124.961C78.1072 128.255 78.0588 130.933 77.9868 130.931Z" fill="#455A64"/>
<path d="M96.8315 114.207C96.8454 114.224 96.7152 114.357 96.4647 114.587C96.2142 114.817 95.8561 115.141 95.3818 115.516C94.8284 115.964 94.2329 116.358 93.6037 116.69C92.8248 117.104 91.9713 117.358 91.0932 117.437C90.2073 117.504 89.3202 117.327 88.5286 116.924C87.893 116.598 87.3055 116.186 86.7829 115.699C86.4299 115.378 86.0962 115.037 85.7838 114.676C85.6589 114.553 85.5512 114.414 85.4636 114.262C85.4974 114.229 85.9962 114.781 86.9064 115.556C87.4308 116.011 88.0126 116.396 88.6369 116.7C89.3941 117.069 90.2358 117.231 91.0763 117.169C91.9195 117.092 92.7405 116.855 93.4949 116.469C94.1163 116.153 94.7093 115.783 95.267 115.363C96.2231 114.649 96.8035 114.175 96.8315 114.207Z" fill="#455A64"/>
<path d="M98.6679 124.331C98.5141 124.429 98.3485 124.508 98.1751 124.566L96.805 125.135C95.6482 125.624 94.0662 126.324 92.3575 127.183C90.6487 128.043 89.1451 128.903 88.0674 129.544C87.5688 129.845 87.1459 130.097 86.794 130.308C86.6442 130.415 86.4808 130.501 86.308 130.564C86.4343 130.432 86.5772 130.316 86.7333 130.22C87.0183 130.014 87.4396 129.726 87.9633 129.381C89.3434 128.493 90.7694 127.679 92.2352 126.941C93.6993 126.202 95.2009 125.54 96.7339 124.957C97.3238 124.735 97.8058 124.568 98.138 124.462C98.3079 124.394 98.4861 124.35 98.6679 124.331Z" fill="#455A64"/>
<path d="M66.6219 117.337C66.5857 117.344 66.4859 117.078 66.3612 116.626C66.1976 116.039 66.0992 115.436 66.0679 114.828C66.0351 114.211 66.1242 113.594 66.3303 113.012C66.497 112.569 66.6717 112.333 66.7009 112.35C66.45 113.151 66.3264 113.985 66.3347 114.824C66.3712 115.417 66.4428 116.007 66.5489 116.591C66.6141 116.834 66.6388 117.086 66.6219 117.337Z" fill="#455A64"/>
<path d="M68.7503 117.654C68.6472 117.416 68.5847 117.162 68.5652 116.903C68.4484 116.291 68.3913 115.668 68.3947 115.044C68.4027 114.695 68.4503 114.347 68.5366 114.009C68.6163 113.732 68.7327 113.468 68.8826 113.222C69.0055 112.986 69.1893 112.787 69.415 112.646C69.3062 112.875 69.1839 113.098 69.0487 113.313C68.7897 113.856 68.6569 114.451 68.6604 115.053C68.6444 115.761 68.7261 116.408 68.7506 116.884C68.7961 117.139 68.796 117.399 68.7503 117.654Z" fill="#455A64"/>
<path d="M81.9689 117.569C82.0321 116.296 81.8804 115.022 81.5202 113.8C81.0739 112.607 80.4336 111.496 79.6252 110.513C79.9462 110.723 80.2262 110.99 80.4514 111.301C81.0358 112.017 81.4842 112.835 81.7743 113.713C82.067 114.59 82.1963 115.514 82.1558 116.439C82.1609 116.824 82.0976 117.206 81.9689 117.569Z" fill="#455A64"/>
<path d="M84.4109 116.949C84.2846 115.783 84.0727 114.627 83.7769 113.492C83.3877 112.385 82.9192 111.307 82.3752 110.267C82.6305 110.507 82.8431 110.79 83.0039 111.102C83.4415 111.825 83.7867 112.599 84.0314 113.408C84.2811 114.218 84.4307 115.055 84.477 115.901C84.5078 116.252 84.4855 116.605 84.4109 116.949Z" fill="#455A64"/>
<path d="M75.5494 114.4C75.536 114.389 75.6494 114.27 75.9203 114.17C76.3139 114.038 76.7426 114.059 77.1213 114.229C77.3884 114.344 77.6201 114.528 77.793 114.763C77.9852 115.042 78.0803 115.378 78.0637 115.717C78.0456 116.089 77.9157 116.448 77.691 116.745C77.5699 116.908 77.4177 117.045 77.2432 117.148C77.0688 117.251 76.8756 117.318 76.6749 117.345C76.2879 117.39 75.897 117.305 75.5639 117.103C75.2308 116.901 74.9746 116.594 74.8357 116.229C74.7377 115.908 74.7373 115.565 74.8347 115.243C74.8992 114.958 75.0412 114.696 75.2451 114.487C75.556 114.209 75.9593 114.057 76.3759 114.061C76.4519 114.056 76.528 114.066 76.5999 114.091C76.6718 114.116 76.738 114.154 76.7948 114.205C76.6581 114.173 76.5178 114.159 76.3775 114.164C76.0006 114.197 75.6465 114.359 75.3739 114.621C75.2087 114.815 75.0963 115.047 75.0477 115.297C74.9703 115.576 74.9778 115.872 75.0693 116.147C75.1979 116.45 75.4205 116.704 75.7044 116.871C75.9882 117.038 76.3183 117.109 76.6458 117.074C76.9704 117.014 77.2648 116.845 77.4797 116.594C77.6947 116.343 77.8171 116.026 77.8266 115.696C77.8469 115.41 77.774 115.125 77.6186 114.883C77.4758 114.673 77.2793 114.506 77.0495 114.398C76.7099 114.229 76.3225 114.182 75.9523 114.266C75.69 114.335 75.5591 114.421 75.5494 114.4Z" fill="#455A64"/>
<path d="M48.0644 62.1228C47.7545 62.44 39.1259 66.9363 37.6057 70.1888C36.0855 73.4413 36.8545 87.2963 36.9892 89.6951C37.1239 92.0939 40.9708 101.425 40.9708 101.425C40.9708 101.425 39.6593 105.196 40.7287 107.683C41.4271 109.225 42.5612 110.528 43.9912 111.43L52.596 107.643L49.5222 84.1187L48.0644 62.1228Z" fill="#F99D25"/>
<path d="M46.8353 86.4407C47.0988 86.128 47.4322 85.941 47.6454 85.7078C47.8586 85.4747 48.2892 85.3984 48.4717 85.6563C48.6769 85.9519 48.3919 86.3331 48.1239 86.5769C48.9544 86.6849 49.6774 85.6069 50.4617 85.9008C50.5805 85.965 50.6851 86.0526 50.7692 86.1583C50.8534 86.264 50.9153 86.3856 50.9513 86.5159C50.9874 86.6462 50.9968 86.7824 50.9789 86.9165C50.9611 87.0506 50.9164 87.1797 50.8476 87.2961C50.5475 87.757 50.108 88.1098 49.5934 88.3028C49.0798 88.49 48.6081 88.7766 48.2051 89.1464C48.0124 89.3553 47.8685 89.688 48.0409 89.9181C48.3254 90.3083 49.1117 89.9447 49.3573 90.3615C49.5252 90.6432 49.2615 90.98 49.0215 91.2002C48.1441 92.0082 47.2619 92.8158 46.3846 93.6229C46.171 93.8577 45.8986 94.0311 45.5957 94.1251C45.4436 94.1687 45.2807 94.1526 45.1401 94.0802C44.9996 94.0078 44.8919 93.8844 44.8391 93.7353C44.8296 93.5808 44.8695 93.4272 44.953 93.2968C45.0366 93.1664 45.1594 93.0659 45.3036 93.01C45.5941 92.9049 45.8764 92.7783 46.1481 92.6311C46.2816 92.5517 46.3792 92.4236 46.4202 92.2737C46.4613 92.1238 46.4426 91.9639 46.3681 91.8277C46.1276 91.529 45.6484 91.7188 45.3216 91.9295C44.3195 92.5823 43.3208 93.2348 42.3258 93.8869C42.1197 94.0512 41.8726 94.1558 41.6114 94.1893C41.4807 94.2013 41.3505 94.1622 41.248 94.0804C41.1455 93.9985 41.0787 93.8801 41.0614 93.7499C41.0756 93.6132 41.1299 93.4837 41.2174 93.3778C41.8103 92.5307 42.583 91.8253 43.48 91.3121C43.8339 91.1471 44.1586 90.9255 44.4414 90.6561C44.5819 90.5199 44.676 90.3429 44.7102 90.1502C44.7445 89.9575 44.7172 89.759 44.6321 89.5829C44.0353 90.0544 43.3859 90.4549 42.6968 90.7763C42.4504 90.8937 42.1092 90.972 41.9541 90.7531C41.799 90.5342 42.0055 90.2233 42.2104 90.0299C43.2787 88.9765 44.3467 87.9251 45.4146 86.8755C45.532 86.7245 45.6785 86.5986 45.8454 86.5054C46.0123 86.4122 46.1963 86.3537 46.3862 86.3332L46.8353 86.4407Z" fill="white"/>
<path d="M55.3329 55.0645L52.6797 59.0651L46.2046 63.3899C44.8338 69.412 44.2681 75.5889 44.5222 81.7583C44.5222 81.7583 51.2482 106.5 51.375 107.565C51.6065 109.543 55.0291 111.491 55.0291 111.491C55.0291 111.491 68.4802 112.785 73.1648 112.519C77.8495 112.254 89.6573 106.165 90.7976 105.314C91.9379 104.462 93.5539 100.065 93.5539 100.065L87.3522 76.262L88.3173 59.9816L76.29 55.7529L72.3978 52.1462L55.3329 55.0645Z" fill="#F99D25"/>
<path d="M66.3927 75.2948C66.3989 75.2977 66.4247 75.2341 66.4655 75.1048C66.5137 74.9565 66.5729 74.7714 66.6471 74.543C66.8048 74.0503 67.0344 73.3341 67.3498 72.4354C68.2082 69.98 69.2341 67.5865 70.4204 65.2718L70.1969 65.2612C71.0523 67.4448 72.0104 69.8966 73.0171 72.482C73.1058 72.7114 73.1933 72.9351 73.2751 73.1455L73.4768 73.6547L73.5341 73.1105L74.8467 60.5125C74.9978 58.9244 75.1279 57.6374 75.2131 56.7182C75.2487 56.2914 75.2763 55.9491 75.2993 55.6842C75.3162 55.5658 75.3198 55.4459 75.3101 55.3267C75.2745 55.4425 75.2522 55.5621 75.2437 55.683C75.2071 55.9416 75.1634 56.2845 75.1062 56.7081C74.9956 57.6303 74.8431 58.9174 74.6551 60.4943C74.2987 63.7239 73.8097 68.1607 73.2654 73.0826L73.5203 73.0502C73.4385 72.8397 73.3493 72.6115 73.2623 72.3867C72.2453 69.804 71.2785 67.3563 70.4183 65.1735L70.3212 64.9206L70.2038 65.1595C69.0255 67.4896 68.0256 69.9057 67.2127 72.3872C66.9174 73.2959 66.7071 74.0204 66.5736 74.5207C66.5166 74.7541 66.4653 74.9414 66.4278 75.091C66.4076 75.1572 66.3958 75.2257 66.3927 75.2948Z" fill="#263238"/>
<g opacity="0.3">
<path d="M75.251 55.4338C75.8417 62.5813 75.337 69.7765 73.7543 76.7703C71.6488 75.1758 70.1698 72.8923 69.5757 70.3189C69.0445 72.003 68.0131 73.4851 66.6188 74.568C67.4506 71.3505 68.6717 68.2466 70.2552 65.3254C70.2552 65.3254 73.4356 73.4175 73.3497 73.2096C74.0209 67.2339 74.6553 61.3647 75.251 55.4338Z" fill="black"/>
</g>
<path d="M88.4837 75.1056C88.7473 74.7919 89.0806 74.6059 89.2939 74.3718C89.5071 74.1376 89.9376 74.0632 90.1202 74.3202C90.3254 74.6158 90.0404 74.997 89.7723 75.2408C90.6028 75.3497 91.3257 74.2718 92.1101 74.5657C92.2289 74.6299 92.3335 74.7175 92.4176 74.8232C92.5017 74.9289 92.5637 75.0505 92.5997 75.1808C92.6357 75.3111 92.6451 75.4473 92.6273 75.5814C92.6095 75.7154 92.5648 75.8445 92.496 75.961C92.1959 76.4218 91.7563 76.7746 91.2417 76.9676C90.7282 77.1549 90.2565 77.4416 89.8535 77.8112C89.6607 78.0211 89.5168 78.3529 89.6893 78.5829C89.9729 78.9722 90.7601 78.6096 91.0057 79.0263C91.1736 79.3081 90.9099 79.6448 90.6699 79.8651C89.7925 80.6731 88.9103 81.4807 88.0329 82.2877C87.8194 82.5226 87.547 82.696 87.2441 82.79C87.092 82.8331 86.9292 82.8168 86.7888 82.7444C86.6484 82.6721 86.5407 82.549 86.4874 82.4001C86.478 82.2456 86.5179 82.092 86.6014 81.9616C86.6849 81.8312 86.8077 81.7308 86.952 81.6748C87.2425 81.5699 87.5248 81.4432 87.7965 81.296C87.9302 81.2168 88.0279 81.0886 88.069 80.9387C88.11 80.7887 88.0912 80.6287 88.0165 80.4925C87.7759 80.1938 87.2968 80.3836 86.97 80.5943C85.9709 81.2519 84.9702 81.9065 83.9715 82.5603C83.7653 82.7243 83.5182 82.8289 83.2571 82.8626C83.1255 82.8737 82.9949 82.8332 82.8928 82.7496C82.7907 82.6661 82.725 82.546 82.7098 82.4148C82.7241 82.2781 82.7784 82.1486 82.8658 82.0426C83.458 81.1942 84.2305 80.4874 85.1278 79.9731C85.4816 79.808 85.8063 79.5865 86.0891 79.317C86.2295 79.1808 86.3235 79.0038 86.3578 78.8111C86.392 78.6185 86.3648 78.42 86.2799 78.2439C85.6831 78.7154 85.0336 79.1159 84.3445 79.4372C84.0982 79.5547 83.757 79.633 83.6019 79.4141C83.4468 79.1952 83.6533 78.8843 83.8582 78.6909C84.9264 77.6375 85.9945 76.586 87.0624 75.5364C87.1797 75.3854 87.3262 75.2595 87.4931 75.1664C87.6601 75.0732 87.844 75.0146 88.034 74.9941L88.4837 75.1056Z" fill="white"/>
<path d="M88.1217 60.0117C88.1217 60.0117 94.7224 62.9705 96.1396 67.2202C97.5567 71.4698 102.682 91.4369 101.949 94.9392C101.215 98.4415 99.7063 102.462 96.6101 102.372C93.5138 102.283 90.2455 98.8296 90.2455 98.8296L87.8714 94.0753L88.4352 89.3608L86.399 76.5048L88.1217 60.0117Z" fill="#F99D25"/>
<path d="M55.4197 57.9433C55.4222 57.9695 66.2867 75.5698 66.2867 75.5698L69.6021 59.778L70.4267 53.3153L56.2417 56.5039L55.4197 57.9433Z" fill="#915D42"/>
<path d="M44.461 81.7499C44.5116 81.8471 44.5495 81.9506 44.5735 82.0576C44.6407 82.29 44.7317 82.5901 44.8431 82.9545C45.0722 83.7313 45.3878 84.8724 45.7666 86.2783C46.535 89.089 47.4787 93.0036 48.5576 97.3069C49.0969 99.4605 49.6322 101.507 50.1231 103.368C50.3743 104.299 50.5946 105.187 50.8455 106C51.0708 106.755 51.3689 107.487 51.7355 108.184C52.2729 109.191 53.0194 110.07 53.925 110.764C54.5757 111.246 54.9836 111.447 54.9661 111.471C54.8624 111.437 54.763 111.39 54.6702 111.333C54.3926 111.187 54.1242 111.025 53.8667 110.846C52.9187 110.172 52.135 109.293 51.5736 108.273C51.192 107.569 50.8792 106.829 50.6396 106.064C50.3786 105.245 50.1487 104.356 49.8914 103.43C49.3876 101.572 48.8447 99.5253 48.2997 97.3712C47.2474 93.0712 46.291 89.1806 45.5884 86.3235C45.2396 84.9366 44.9543 83.8021 44.7482 82.9829C44.6578 82.6097 44.5873 82.3056 44.5292 82.0692C44.4944 81.9657 44.4716 81.8586 44.461 81.7499Z" fill="#263238"/>
<path d="M66.1682 76.1186C66.163 76.1229 66.1216 76.0682 66.0488 75.9539C65.964 75.8231 65.859 75.6596 65.7284 75.4583C65.4488 75.0231 65.0421 74.3908 64.5055 73.6044C63.0424 71.4549 61.4335 69.4087 59.6901 67.4803L59.9013 67.4119C59.6392 69.7432 59.3471 72.3604 59.0426 75.1191C59.0162 75.3638 58.9894 75.6025 58.9648 75.827L58.9015 76.3712L58.7047 75.8604L54.1837 64.0303C53.6312 62.5375 53.1779 61.3302 52.8538 60.4601C52.7091 60.0569 52.5938 59.7364 52.5033 59.4845C52.4558 59.3742 52.4207 59.2589 52.3987 59.1407C52.4634 59.2434 52.5161 59.3531 52.5558 59.4678C52.658 59.7082 52.7887 60.0282 52.9534 60.4225C53.2984 61.2847 53.7781 62.4886 54.3668 63.9632C55.5451 66.9908 57.1631 71.1502 58.9598 75.7639L58.7053 75.7987C58.7299 75.5742 58.7571 75.3306 58.783 75.0908C59.0982 72.332 59.3998 69.7166 59.6667 67.3857L59.6915 67.1149L59.8665 67.3153C61.6068 69.2607 63.197 71.3355 64.6235 73.5221C65.1435 74.3225 65.5335 74.9688 65.7917 75.4175C65.907 75.6281 66.005 75.7958 66.0807 75.9306C66.1177 75.9893 66.1471 76.0525 66.1682 76.1186Z" fill="#263238"/>
<path d="M85.1389 90.3118C85.1851 90.3669 80.6907 94.4127 75.1021 99.3451C69.5134 104.278 64.9347 108.23 64.8873 108.178C64.8399 108.125 69.3352 104.08 74.9299 99.145C80.5246 94.2102 85.0918 90.2566 85.1389 90.3118Z" fill="#263238"/>
<path d="M75.5725 111.832C75.4555 111.294 75.3716 110.75 75.3213 110.202C75.1791 109.193 74.9483 107.802 74.5997 106.296C74.251 104.79 73.8545 103.436 73.5451 102.47C73.3503 101.954 73.1866 101.426 73.0547 100.891C73.3277 101.372 73.5506 101.88 73.7198 102.408C74.1832 103.657 74.5637 104.937 74.8588 106.237C75.1569 107.536 75.3717 108.854 75.502 110.181C75.5815 110.727 75.6051 111.28 75.5725 111.832Z" fill="#263238"/>
<path d="M43.499 80.8144C42.3688 80.0664 41.288 79.2461 40.2636 78.3584C39.1838 77.5359 38.1589 76.6437 37.1954 75.6874C38.326 76.4362 39.407 77.2576 40.4315 78.1464C41.5122 78.9664 42.537 79.8578 43.499 80.8144Z" fill="#263238"/>
<path d="M96.5773 102.365C96.5175 102.371 96.4571 102.371 96.3973 102.364C96.2549 102.352 96.0816 102.342 95.8718 102.329C95.59 102.307 95.311 102.259 95.0383 102.185C94.6666 102.101 94.3025 101.987 93.9496 101.843C93.007 101.436 92.1583 100.839 91.4562 100.089C90.5615 99.1195 89.8874 97.9668 89.4804 96.7106L89.4818 96.6953C89.1746 94.7162 88.8337 92.5172 88.4721 90.2046C87.8131 85.8008 87.2105 81.8176 86.7738 78.891C86.5709 77.4657 86.4068 76.3002 86.2913 75.4571L86.1734 74.5222C86.1529 74.4132 86.1445 74.3022 86.1486 74.1913C86.1866 74.2946 86.2124 74.402 86.2253 74.5113C86.2706 74.7515 86.3263 75.06 86.3948 75.441C86.5366 76.2806 86.7269 77.4435 86.96 78.8647C87.4163 81.7872 88.0403 85.7676 88.7317 90.1645C89.0823 92.4819 89.4175 94.6795 89.7152 96.6578L89.7118 96.6421C90.0988 97.8663 90.7432 98.9931 91.6017 99.9467C92.2749 100.688 93.0918 101.284 94.0028 101.698C94.8292 102.029 95.6943 102.253 96.5773 102.365Z" fill="#263238"/>
<path d="M46.7973 98.3264C46.4571 98.3902 46.1138 98.4356 45.7688 98.4625C44.9558 98.5926 44.1721 98.8656 43.4539 99.2689C42.7382 99.6756 42.0977 100.203 41.5605 100.827C41.3563 101.108 41.1376 101.379 40.9054 101.638C41.0088 101.299 41.181 100.986 41.4112 100.717C41.9249 100.031 42.5762 99.4586 43.3233 99.0382C44.0703 98.6177 44.8968 98.358 45.7496 98.2757C46.0985 98.2175 46.4557 98.2348 46.7973 98.3264Z" fill="#263238"/>
<path d="M46.9444 97.7546C46.1667 98.1291 45.3308 98.3677 44.4731 98.4602C43.6291 98.6371 42.7614 98.6692 41.907 98.5551C41.9032 98.4775 43.0437 98.4177 44.4298 98.1957C45.8159 97.9738 46.9201 97.6801 46.9444 97.7546Z" fill="#263238"/>
<path d="M47.8197 69.2879C48.0833 68.9753 48.4167 68.7882 48.6298 68.5551C48.843 68.3219 49.2735 68.2465 49.4561 68.5035C49.6613 68.7991 49.3763 69.1803 49.1083 69.4242C49.9388 69.5321 50.6618 68.4541 51.4461 68.748C51.5649 68.8123 51.6695 68.8999 51.7537 69.0055C51.8378 69.1112 51.8997 69.2329 51.9358 69.3631C51.9718 69.4934 51.9812 69.6297 51.9633 69.7637C51.9455 69.8978 51.9009 70.0269 51.832 70.1433C51.5319 70.6042 51.0924 70.957 50.5778 71.15C50.0639 71.3371 49.5919 71.6238 49.1886 71.9935C48.9958 72.2024 48.8519 72.5352 49.0244 72.7652C49.309 73.1545 50.0952 72.7919 50.3408 73.2086C50.5087 73.4904 50.245 73.8271 50.005 74.0474C49.1276 74.8554 48.2454 75.662 47.368 76.47C47.1545 76.7049 46.8821 76.8783 46.5791 76.9723C46.4271 77.0142 46.2648 76.9974 46.1247 76.9252C45.9845 76.853 45.8767 76.7306 45.8225 76.5824C45.8131 76.4279 45.853 76.2743 45.9365 76.1439C46.02 76.0135 46.1428 75.9131 46.2871 75.8571C46.5776 75.7521 46.8599 75.6255 47.1316 75.4783C47.3833 75.2996 47.545 74.9183 47.3511 74.6806C47.1105 74.3819 46.6314 74.5716 46.3046 74.7824C45.3079 75.4354 44.3053 76.0888 43.3078 76.7398C43.1017 76.904 42.8546 77.0086 42.5933 77.0421C42.4635 77.0538 42.3343 77.0151 42.2323 76.9341C42.1302 76.853 42.0632 76.7359 42.045 76.6067C42.0592 76.47 42.1135 76.3405 42.201 76.2346C42.7935 75.386 43.5663 74.6793 44.4639 74.1651C44.8178 74.0001 45.1425 73.7785 45.4253 73.5091C45.5658 73.3729 45.6599 73.1959 45.6941 73.0032C45.7284 72.8105 45.7011 72.612 45.616 72.4359C45.0192 72.9074 44.3698 73.3079 43.6807 73.6292C43.4343 73.7467 43.0931 73.825 42.938 73.6061C42.7829 73.3872 42.9895 73.0763 43.1943 72.8829C44.2626 71.8295 45.3306 70.778 46.3985 69.7285C46.5158 69.5774 46.6623 69.4515 46.8293 69.3583C46.9962 69.2651 47.1801 69.2066 47.3701 69.1861L47.8197 69.2879Z" fill="white"/>
<path d="M68.6399 78.086C68.9035 77.7724 69.2369 77.5863 69.4501 77.3522C69.6634 77.1181 70.0938 77.0437 70.2764 77.3007C70.4816 77.5963 70.1966 77.9775 69.9286 78.2213C70.759 78.3302 71.482 77.2522 72.2663 77.5461C72.3851 77.6104 72.4897 77.6979 72.5739 77.8036C72.658 77.9093 72.7199 78.031 72.756 78.1612C72.792 78.2915 72.8014 78.4278 72.7835 78.5618C72.7657 78.6959 72.7211 78.825 72.6522 78.9414C72.3521 79.4023 71.9126 79.7551 71.398 79.9481C70.8841 80.1352 70.4121 80.4218 70.0088 80.7916C69.816 81.0005 69.6721 81.3333 69.8446 81.5633C70.1292 81.9526 70.9154 81.5899 71.161 82.0067C71.3289 82.2885 71.0652 82.6252 70.8252 82.8454C69.9478 83.6535 69.0656 84.4601 68.1882 85.2681C67.9747 85.5029 67.7023 85.6764 67.3994 85.7704C67.2472 85.814 67.0843 85.7979 66.9438 85.7255C66.8032 85.653 66.6956 85.5297 66.6427 85.3805C66.6333 85.226 66.6732 85.0724 66.7567 84.942C66.8402 84.8116 66.963 84.7112 67.1073 84.6552C67.3978 84.5502 67.6801 84.4236 67.9518 84.2764C68.0855 84.1972 68.1832 84.069 68.2243 83.919C68.2653 83.7691 68.2465 83.6091 68.1718 83.4729C67.9312 83.1742 67.4521 83.364 67.1253 83.5747C66.1272 84.2324 65.1265 84.887 64.1277 85.5407C63.9215 85.7048 63.6745 85.8093 63.4133 85.8431C63.2818 85.8542 63.1512 85.8136 63.049 85.7301C62.9469 85.6465 62.8813 85.5265 62.866 85.3953C62.8803 85.2586 62.9346 85.1291 63.0221 85.0231C63.6149 84.176 64.3876 83.4706 65.2847 82.9575C65.6385 82.7924 65.9632 82.5708 66.246 82.3014C66.3865 82.1652 66.4806 81.9882 66.5149 81.7955C66.5491 81.6029 66.5218 81.4043 66.4368 81.2283C65.84 81.6998 65.1905 82.1003 64.5014 82.4216C64.255 82.539 63.9138 82.6174 63.7587 82.3985C63.6036 82.1795 63.8102 81.8687 64.015 81.6753C65.0833 80.6219 66.1513 79.5704 67.2192 78.5208C67.3365 78.3697 67.483 78.2439 67.65 78.1507C67.8169 78.0575 68.0009 77.9989 68.1908 77.9785L68.6399 78.086Z" fill="white"/>
<path d="M58.7102 97.6681C58.9739 97.3544 59.3072 97.1684 59.5204 96.9343C59.7337 96.7001 60.1641 96.6257 60.3467 96.8827C60.5519 97.1783 60.267 97.5595 59.9989 97.8033C60.8294 97.9122 61.5523 96.8343 62.3366 97.1282C62.4554 97.1924 62.56 97.28 62.6442 97.3857C62.7283 97.4914 62.7902 97.613 62.8263 97.7433C62.8623 97.8736 62.8717 98.0098 62.8539 98.1439C62.836 98.2779 62.7914 98.407 62.7225 98.5235C62.4224 98.9843 61.9829 99.3371 61.4683 99.5301C60.9548 99.7174 60.483 100.004 60.0801 100.374C59.8873 100.583 59.7434 100.915 59.9158 101.145C60.1995 101.535 60.9867 101.172 61.2323 101.589C61.4002 101.871 61.1364 102.207 60.8965 102.428C60.019 103.236 59.1368 104.043 58.2595 104.85C58.0459 105.085 57.7736 105.258 57.4706 105.353C57.3185 105.394 57.1563 105.378 57.0162 105.305C56.876 105.233 56.7682 105.111 56.714 104.963C56.7045 104.808 56.7445 104.655 56.828 104.524C56.9115 104.394 57.0343 104.293 57.1786 104.237C57.4691 104.132 57.7514 104.006 58.023 103.859C58.1566 103.779 58.2541 103.651 58.2952 103.501C58.3362 103.351 58.3175 103.191 58.2431 103.055C58.0025 102.756 57.5234 102.946 57.1966 103.157C56.1944 103.81 55.1958 104.462 54.2007 105.114C53.9946 105.279 53.7475 105.383 53.4863 105.417C53.3556 105.429 53.2254 105.39 53.123 105.308C53.0205 105.226 52.9536 105.107 52.9363 104.977C52.9506 104.841 53.0049 104.711 53.0924 104.605C53.6846 103.757 54.4571 103.05 55.3543 102.536C55.7082 102.371 56.0329 102.149 56.3157 101.88C56.4562 101.743 56.5503 101.566 56.5845 101.374C56.6188 101.181 56.5915 100.982 56.5064 100.806C55.9097 101.278 55.2602 101.678 54.5711 102C54.3247 102.117 53.9835 102.195 53.8284 101.977C53.6733 101.758 53.8799 101.447 54.0847 101.253C55.153 100.2 56.221 99.1485 57.2889 98.0989C57.4062 97.9479 57.5527 97.822 57.7197 97.7288C57.8866 97.6356 58.0705 97.5771 58.2605 97.5566L58.7102 97.6681Z" fill="white"/>
<path d="M83.2181 98.0149C83.4817 97.7022 83.8151 97.5152 84.0282 97.2821C84.2414 97.0489 84.672 96.9726 84.8545 97.2305C85.0597 97.5261 84.7747 97.9073 84.5067 98.1511C85.3372 98.2591 86.0602 97.1811 86.8436 97.4749C86.9624 97.5392 87.067 97.6267 87.1511 97.7324C87.2352 97.8381 87.2972 97.9598 87.3332 98.09C87.3692 98.2203 87.3786 98.3566 87.3608 98.4906C87.343 98.6247 87.2983 98.7538 87.2295 98.8702C86.9294 99.3311 86.4898 99.6839 85.9752 99.8769C85.4617 100.064 84.99 100.351 84.587 100.721C84.3942 100.929 84.2503 101.262 84.4228 101.492C84.7074 101.882 85.4936 101.519 85.7392 101.936C85.9071 102.217 85.6434 102.554 85.4034 102.774C84.526 103.582 83.6438 104.39 82.7664 105.197C82.5528 105.432 82.2805 105.605 81.9775 105.699C81.8254 105.743 81.6625 105.727 81.522 105.654C81.3814 105.582 81.2738 105.459 81.2209 105.309C81.2115 105.155 81.2514 105.001 81.3349 104.871C81.4184 104.741 81.5412 104.64 81.6855 104.584C81.976 104.479 82.2583 104.353 82.53 104.205C82.6635 104.126 82.7611 103.998 82.802 103.848C82.8428 103.698 82.8239 103.538 82.749 103.402C82.5085 103.103 82.0293 103.293 81.7025 103.504C80.7054 104.161 79.7047 104.816 78.7059 105.47C78.4998 105.634 78.2527 105.738 77.9915 105.772C77.86 105.783 77.7294 105.743 77.6272 105.659C77.5251 105.575 77.4595 105.455 77.4442 105.324C77.4584 105.187 77.5127 105.058 77.6003 104.952C78.1925 104.104 78.965 103.397 79.8622 102.882C80.2161 102.717 80.5408 102.496 80.8236 102.226C80.964 102.09 81.058 101.913 81.0922 101.72C81.1265 101.528 81.0992 101.329 81.0143 101.153C80.4175 101.625 79.768 102.025 79.079 102.347C78.8326 102.464 78.4914 102.542 78.3363 102.323C78.1812 102.105 78.3877 101.794 78.5926 101.6C79.6608 100.547 80.7289 99.4954 81.7968 98.4458C81.9141 98.2947 82.0606 98.1688 82.2275 98.0757C82.3945 97.9825 82.5784 97.9239 82.7684 97.9035L83.2181 98.0149Z" fill="white"/>
<path d="M73.6514 99.9238C73.6404 99.9277 73.6008 99.8529 73.5322 99.7023C73.4515 99.5256 73.3514 99.3067 73.2311 99.0436C72.9734 98.4716 72.621 97.6408 72.195 96.5953C71.3516 94.5175 70.2681 91.6128 69.2365 88.3473C68.205 85.0817 67.4303 82.0805 66.9276 79.8945C66.6741 78.8033 66.4857 77.9134 66.3658 77.2965C66.3136 77.0143 66.2726 76.7794 66.2329 76.586C66.2146 76.5041 66.2045 76.4205 66.2028 76.3365C66.2414 76.4118 66.2694 76.4921 66.2858 76.5752C66.3356 76.7646 66.3923 76.9951 66.465 77.2743C66.6285 77.921 66.8445 78.7921 67.1049 79.8482C67.6525 82.0169 68.4618 85.0077 69.4891 88.267C70.5163 91.5264 71.5688 94.4342 72.3646 96.5281C72.7566 97.5436 73.0788 98.3786 73.3163 99.0057C73.4156 99.2766 73.5034 99.5041 73.5698 99.6805C73.6338 99.8393 73.6585 99.9186 73.6514 99.9238Z" fill="#263238"/>
<path d="M102.018 94.5324C101.989 94.9156 100.157 95.5575 99.7775 95.4888L99.3461 95.3124C99.034 95.5746 98.6743 95.7111 98.4268 95.9075C98.1793 96.1039 97.741 96.1149 97.607 95.8313C97.4504 95.5091 97.7931 95.1725 98.0928 94.9739C97.2918 94.7393 96.4072 95.6951 95.6835 95.2831C95.5769 95.2007 95.4879 95.0977 95.4218 94.9802C95.3557 94.8627 95.3138 94.7331 95.2987 94.5991C95.2835 94.465 95.2954 94.3293 95.3336 94.1999C95.3717 94.0705 95.4355 93.95 95.5209 93.8456C95.8863 93.434 96.3762 93.1535 96.9157 93.047C97.4514 92.9417 97.961 92.731 98.4151 92.4273C98.537 92.3531 98.6311 92.2408 98.6827 92.1077C98.7343 91.9746 98.7405 91.8282 98.7004 91.6912C98.4763 91.261 97.6493 91.4966 97.468 91.0498C97.3451 90.7498 97.6543 90.4546 97.9313 90.2733C98.9286 89.6118 100.288 88.6868 101.276 88.0225C101.681 90.1713 101.929 92.3471 102.018 94.5324Z" fill="white"/>
<g opacity="0.3">
<path d="M65.0575 107.902C73.0103 104.48 79.7055 98.6668 84.2144 91.2682L65.0575 107.902Z" fill="black"/>
</g>
<g opacity="0.3">
<path d="M40.9039 101.633C42.6253 98.6445 45.549 98.0377 48.3126 98.3199C48.3541 98.1595 48.335 97.9896 48.259 97.8425C48.1831 97.6954 48.0555 97.5817 47.9009 97.523C47.5889 97.417 47.2549 97.3932 46.9309 97.4539C45.5683 97.5308 44.2319 97.8627 42.9909 98.4323C42.4175 98.7366 41.9304 99.1813 41.5749 99.7249C41.2195 100.268 41.0074 100.893 40.9583 101.541" fill="black"/>
</g>
<g opacity="0.3">
<path d="M52.4688 59.2334C53.7443 66.2911 56.09 73.1109 59.4246 79.4564C61.046 77.37 61.8845 74.7807 61.7937 72.1406C62.7421 73.6278 64.1205 74.7902 65.7456 75.4736C64.1112 72.5828 62.1304 69.9028 59.8471 67.493C59.8471 67.493 58.8657 76.1349 58.895 75.9117C56.7038 70.3123 54.5783 64.8083 52.4688 59.2334Z" fill="black"/>
</g>
<path d="M87.586 70.2796L84.5995 64.506L84.8327 59.1053L86.516 55.542C86.516 55.542 87.6234 55.3762 87.6882 56.6872C87.6678 57.6672 87.4449 58.6326 87.0336 59.5225L87.5459 62.1933C87.5459 62.1933 87.7659 62.4949 88.0945 61.4293C88.4231 60.3636 88.7278 52.2764 88.771 51.7201C88.8141 51.1637 88.9766 49.8522 89.7847 50.046C90.5928 50.2397 90.7591 51.3484 90.7151 51.9047C90.671 52.461 90.7924 57.9129 90.7924 57.9129C90.7924 57.9129 90.941 58.4137 91.1427 58.3647C91.3443 58.3157 91.4842 52.5521 91.523 51.6405C91.5617 50.729 91.5397 48.7131 92.5997 48.8006C93.6598 48.888 93.5711 49.8974 93.5359 51.0098C93.5006 52.1222 93.6473 58.3832 93.6473 58.3832C93.6473 58.3832 93.7766 58.7849 93.9695 58.2772C94.1624 57.7696 94.9491 51.0451 95.0944 50.7396C95.2396 50.4341 95.8923 50.0744 96.309 50.8762C96.7257 51.678 96.4526 53.4474 96.1091 56.5883C95.7991 59.4131 95.6086 60.5833 95.9162 60.8309C96.2237 61.0784 97.5671 59.4436 97.5671 59.4436C97.5671 59.4436 99.3418 55.8382 100.559 56.0763C101.776 56.3143 100.866 57.1972 100.578 58.0457C100.335 58.7649 97.8069 62.9584 97.7574 62.9955C97.7079 63.0327 94.9141 70.6409 94.9141 70.6409L98.7804 79.9541C99.4682 81.5752 99.6278 83.3726 99.2367 85.0909C99.0324 86.2093 98.497 87.2408 97.6999 88.0511C96.9029 88.8615 95.8811 89.4134 94.7673 89.6351C93.9354 89.8246 93.0659 89.7582 92.2729 89.4443C91.4799 89.1305 90.8004 88.5839 90.3235 87.8763C89.5464 86.8436 89.08 85.61 88.9791 84.3204C88.6802 80.8314 87.586 70.2796 87.586 70.2796Z" fill="#915D42"/>
<path d="M91.4486 66.662C91.4031 66.6532 91.4897 66.249 91.434 65.5999C91.3554 64.7616 91.0285 63.9661 90.4951 63.3155C90.0736 62.7844 89.4821 62.4151 88.8201 62.2698C88.408 62.1823 87.9782 62.241 87.6042 62.4358L87.5556 62.4624L87.5399 62.4109C87.4808 62.2611 87.4618 62.1823 87.4742 62.1728C87.4866 62.1633 87.5447 62.2358 87.6253 62.3711L87.555 62.3496C87.7403 62.2139 87.9509 62.1169 88.1743 62.0643C88.3977 62.0117 88.6293 62.0046 88.8555 62.0433C89.5822 62.1672 90.2375 62.555 90.6961 63.1324C91.2675 63.8211 91.5915 64.6819 91.6162 65.5772C91.6543 65.9471 91.5966 66.3207 91.4486 66.662Z" fill="#77574A"/>
<path d="M94.7527 62.7808C94.7931 62.846 94.2899 63.2089 93.7794 63.7649C93.499 64.1318 93.1962 64.4811 92.8729 64.8107C92.9771 64.3375 93.2263 63.9087 93.5856 63.5841C93.8826 63.2021 94.2903 62.9214 94.7527 62.7808Z" fill="#77574A"/>
<path d="M43.3743 107.367C43.2316 109.657 43.9229 111.92 45.32 113.737C46.3514 115.074 47.4527 116.356 48.6192 117.576L57.0495 122.285C57.9041 122.402 58.774 122.329 59.5975 122.071C60.421 121.813 61.1777 121.376 61.8137 120.793C62.6084 120.215 63.2829 119.487 63.799 118.651C64.9117 119.299 66.1102 119.788 67.3592 120.102C69.0988 120.176 68.9309 118.928 68.9309 118.928C68.9309 118.928 63.4165 115.229 62.1479 113.875C60.8792 112.522 56.9858 111.365 54.1401 111.486L52.5417 111.024L52.1434 108.779C52.1434 108.779 49.3768 103.757 46.3179 105.166C43.2589 106.575 43.3743 107.367 43.3743 107.367Z" fill="#915D42"/>
<path d="M61.0318 13.3207C61.0801 12.9522 61.2014 12.597 61.3887 12.2759C61.576 11.9548 61.8255 11.6743 62.1226 11.4507C62.4197 11.2272 62.7584 11.0651 63.1188 10.974C63.4792 10.883 63.8542 10.8647 64.2217 10.9203C64.6734 10.1167 65.4176 9.51787 66.2994 9.24854C67.1812 8.97921 68.1326 9.06008 68.9558 9.47431C69.7237 9.89825 70.2994 10.5996 71.0461 11.0552C71.765 11.4936 72.604 11.6824 73.3613 12.0468C73.7544 12.197 74.1042 12.442 74.3796 12.76C74.655 13.0781 74.8475 13.4593 74.9398 13.8698C74.9475 14.3384 74.8062 14.7974 74.5362 15.1808C74.2663 15.5641 73.8816 15.8519 73.4377 16.0028C72.5428 16.2864 71.597 16.3716 70.6661 16.2523C70.8573 16.39 70.9918 16.5924 71.0447 16.8219C71.0976 17.0514 71.0653 17.2923 70.9537 17.4999C70.7113 17.9076 70.3302 18.2143 69.8801 18.364C69.1475 18.6445 68.3519 18.7177 67.5807 18.5755C66.8095 18.4334 66.0925 18.0815 65.5086 17.5584L63.7619 16.2153C63.3917 16.2069 63.0269 16.1251 62.6887 15.9746C62.3504 15.8242 62.0454 15.608 61.7915 15.3388C61.5375 15.0695 61.3396 14.7525 61.2092 14.406C61.0788 14.0596 61.0185 13.6907 61.0318 13.3207Z" fill="#151C1F"/>
<path d="M65.3963 19.1541C65.5686 19.3018 65.7891 19.3812 66.0161 19.3773C66.2431 19.3733 66.4608 19.2862 66.628 19.1325C66.7875 18.9703 66.8997 18.7676 66.9524 18.5463C67.0051 18.3251 66.9963 18.0937 66.927 17.8771C66.7793 17.4437 66.4838 17.0762 66.0921 16.839C65.7037 16.6041 65.283 16.4271 64.8434 16.3135C64.1756 16.0992 63.4842 15.9673 62.7843 15.9207C62.5358 15.8992 62.2855 15.9321 62.0508 16.0169C61.9344 16.0599 61.8315 16.1332 61.7528 16.2293C61.6741 16.3253 61.6225 16.4406 61.6033 16.5632C61.5753 16.9106 61.8805 17.1878 62.1608 17.3941C63.2092 18.1686 64.3262 18.8457 65.498 19.417" fill="#FFB55E"/>
<path d="M66.4303 18.9903C68.0869 17.1412 72.2089 17.3893 73.1943 18.5877C73.9233 18.2377 74.7589 18.1818 75.5276 18.4318C76.2962 18.6818 76.9388 19.2184 77.3217 19.93L81.7103 20.8548C82.4732 20.951 83.1994 21.2379 83.8219 21.689C84.1245 21.9242 84.3305 22.262 84.4011 22.6388C84.4717 23.0155 84.402 23.4051 84.2052 23.7342C84.5703 23.8618 84.8989 24.0765 85.1624 24.3596C85.4259 24.6427 85.6164 24.9857 85.7175 25.3591C85.8186 25.7324 85.8273 26.1248 85.7427 26.5024C85.6581 26.8799 85.4828 27.2313 85.232 27.526C85.3809 27.6962 85.4935 27.8951 85.5629 28.1104C85.6323 28.3257 85.657 28.5529 85.6355 28.7781C85.6141 29.0034 85.5469 29.2219 85.4381 29.4204C85.3293 29.6188 85.1811 29.793 85.0027 29.9323C86.2257 31.3774 87.1924 33.0212 87.8607 34.7926C88.2082 35.5086 88.2912 36.3244 88.0952 37.096C88.0361 37.2812 87.9379 37.4515 87.8071 37.5954C87.6763 37.7392 87.5161 37.8532 87.3373 37.9295C87.1585 38.0058 86.9653 38.0427 86.7711 38.0376C86.5768 38.0325 86.3859 37.9856 86.2114 37.9C86.4281 38.2026 86.5531 38.5612 86.5717 38.933C86.5903 39.3048 86.5017 39.6741 86.3163 39.9971C87.0564 40.0113 87.2874 41.1543 86.7823 41.6977C86.4958 41.9336 86.1638 42.1081 85.8071 42.2102C85.4503 42.3124 85.0764 42.3401 84.7086 42.2916C83.9693 42.1923 83.2174 42.3268 82.5581 42.6762C82.565 42.7672 82.5903 42.8558 82.6325 42.9366C82.6748 43.0175 82.733 43.0888 82.8037 43.1464C83.4326 43.6141 83.8569 44.3061 83.9885 45.0787C84.1202 45.8513 83.9491 46.6452 83.5108 47.2953C83.4234 47.4182 83.3427 47.5344 83.2687 47.639C82.6629 48.2865 81.934 48.8066 81.1246 49.1687C79.454 50.0571 78.4548 49.8952 76.5847 50.1809C77.1036 51.3843 74.0817 54.0785 70.5855 51.4777C64.3774 53.3093 57.9375 54.2329 51.4661 54.2196C50.4418 54.2305 49.2064 54.1013 48.7478 53.1858C48.3246 53.269 47.8873 53.2434 47.4768 53.1114C47.0664 52.9794 46.6962 52.7454 46.401 52.4313C45.8174 51.7976 45.3477 51.0679 45.0127 50.2742C44.1247 50.024 43.3361 49.5051 42.7552 48.7887C42.1743 48.0722 41.8296 47.1934 41.7684 46.2729C41.1648 45.803 40.6656 45.2128 40.3022 44.5396C39.9389 43.8665 39.7195 43.1251 39.6579 42.3625C39.2367 42.215 38.8507 41.982 38.524 41.6782C38.1973 41.3743 37.937 41.0063 37.7594 40.597C37.5818 40.1877 37.4907 39.7461 37.4919 39.2999C37.4931 38.8536 37.5865 38.4124 37.7663 38.0038C38.1256 35.8808 38.8327 33.8315 39.8592 31.9382C38.6804 31.6929 38.2279 30.1151 38.7082 29.0064C39.2981 27.95 40.1853 27.09 41.2597 26.5331C40.3822 26.7753 39.6079 25.6699 39.8117 24.7907C40.1174 23.9234 40.7546 23.2125 41.5835 22.8139C42.7235 22.1191 43.943 21.5641 45.2155 21.1608C45.6231 19.6106 47.5887 17.8344 49.0337 17.1361C54.851 14.3143 58.9455 13.5834 66.4303 18.9903Z" fill="#151C1F"/>
<path d="M70.9178 28.3593C70.9989 27.1313 71.2065 25.9139 69.986 25.7281L57.5695 21.9834C53.5644 21.378 50.6668 26.2137 50.2288 30.2413C49.7475 34.7152 49.3244 40.1991 49.7013 43.5706C49.8984 45.4942 50.635 47.3225 51.8262 48.8446C53.0174 50.3667 54.6146 51.5206 56.4336 52.1732C56.4336 52.1665 56.2777 56.2851 56.2777 56.2851C56.7919 59.4531 59.8807 62.4061 61.1642 63.6758C65.5584 62.8535 70.4601 53.7928 70.4601 53.7928L70.9178 28.3593Z" fill="#915D42"/>
<path d="M56.4494 52.1742C59.3604 51.8183 62.1726 50.8901 64.7238 49.4431C64.7238 49.4431 63.1604 53.691 56.3892 54.2125L56.4494 52.1742Z" fill="#6F4439"/>
<path d="M51.7623 29.9658C51.9168 30.1835 52.5659 29.9933 53.3378 30.018C54.1059 30.0177 54.752 30.2247 54.9133 30.0107C54.9835 29.9052 54.8923 29.6913 54.6149 29.4785C54.2462 29.2159 53.8045 29.0749 53.3516 29.0751C52.8992 29.063 52.4542 29.1919 52.0784 29.4438C51.7941 29.6511 51.6951 29.8574 51.7623 29.9658Z" fill="#263238"/>
<path d="M47.1937 33.4718C47.2204 32.4054 47.6164 31.3811 48.3139 30.5736C48.7504 30.1939 49.167 29.792 49.5622 29.3695C50.3218 28.3777 50.2167 26.9917 50.5435 25.786C50.7596 25.0066 51.1581 24.2897 51.7061 23.6946C52.2542 23.0995 52.936 22.6434 53.6951 22.364C54.9585 21.9143 56.3896 21.9734 57.5753 21.3452C58.4528 20.8823 59.1193 20.0748 60.0208 19.6608C61.7786 18.8568 63.8162 19.7612 65.4755 20.7503C65.8053 22.069 64.9698 23.2096 64.1621 24.3022C63.7551 24.8489 63.2343 25.3008 62.6358 25.6268C62.0372 25.9528 61.3752 26.1451 60.6953 26.1905C59.6394 26.2542 58.4146 26.0156 57.6743 26.7675C56.8955 27.5567 57.1936 28.9465 56.554 29.8509C55.6378 31.1461 53.5617 30.6515 52.1926 31.4515C51.1365 32.0691 50.6907 33.3324 50.1566 34.4335C49.6225 35.5347 48.7054 36.6849 47.4844 36.6335C47.2689 35.594 47.1713 34.5334 47.1937 33.4718Z" fill="#151C1F"/>
<path d="M62.8517 23.1476C65.9362 23.1025 68.9998 23.6557 71.8731 24.7764C72.7574 25.0392 73.5348 25.5769 74.0926 26.3116C74.4674 27.0296 74.6293 27.8399 74.5592 28.647C74.3524 31.3916 73.6694 34.0795 72.541 36.5904L69.3884 38.4759C66.9651 37.9008 68.0818 33.7121 68.2016 31.6145C67.3581 31.2286 66.64 30.6137 66.1287 29.8397C65.6175 29.0658 65.3336 28.1637 65.3093 27.2362C64.6188 26.7833 64.0392 26.1806 63.6138 25.4727C63.1883 24.7649 62.9278 23.9702 62.8517 23.1476Z" fill="#151C1F"/>
<path d="M69.4731 37.5723C69.5715 36.1304 71.3394 35.8494 72.581 36.5959C73.2614 37.0065 73.7726 37.8127 73.6848 39.343C73.4444 43.4259 69.3976 42.3473 69.3938 42.2311C69.3938 42.1582 69.3602 39.26 69.4731 37.5723Z" fill="#915D42"/>
<path d="M70.6967 40.7544C70.7139 40.7438 70.7666 40.8072 70.8825 40.8705C71.0469 40.9519 71.2362 40.967 71.4114 40.9126C71.6854 40.7608 71.9138 40.5382 72.0729 40.2679C72.2319 39.9977 72.3157 39.6897 72.3155 39.376C72.3474 39.027 72.301 38.6754 72.1798 38.3468C72.1481 38.2177 72.0861 38.0981 71.999 37.9979C71.9119 37.8978 71.8021 37.8199 71.6788 37.7709C71.5986 37.744 71.5115 37.7462 71.4327 37.7771C71.3539 37.808 71.2884 37.8657 71.2476 37.94C71.1882 38.0524 71.2092 38.133 71.1853 38.1397C71.1613 38.1465 71.101 38.0668 71.1432 37.8978C71.1714 37.7982 71.2335 37.7116 71.3186 37.6529C71.436 37.5751 71.579 37.5461 71.7172 37.5721C71.8827 37.615 72.0344 37.6997 72.1579 37.8182C72.2813 37.9367 72.3723 38.0849 72.4222 38.2488C72.5756 38.6121 72.6367 39.008 72.6 39.4009C72.5992 39.7659 72.4909 40.1227 72.2887 40.4265C72.0864 40.7302 71.7992 40.9675 71.4631 41.1084C71.3516 41.1344 71.2358 41.1347 71.1243 41.1093C71.0128 41.0839 70.9085 41.0334 70.8192 40.9617C70.7043 40.8533 70.6871 40.7621 70.6967 40.7544Z" fill="#6F4439"/>
<path d="M71.1447 42.4724L71.1552 42.5252C71.1653 42.5796 71.1844 42.6318 71.2118 42.6798C71.3154 42.8718 71.4826 43.0218 71.6848 43.1039C72.0036 43.2426 72.3476 43.3141 72.6954 43.3138C72.9147 43.3197 73.1341 43.3055 73.3509 43.2713C73.5994 43.2381 73.841 43.1658 74.067 43.057L74.018 43.0321C74.074 43.3783 74.2186 43.704 74.4378 43.9777C74.6569 44.2513 74.9431 44.4636 75.2686 44.5938C75.5941 44.7241 75.9478 44.7678 76.2954 44.7209C76.6429 44.674 76.9724 44.5379 77.252 44.326L77.1819 44.3154C77.243 44.4078 77.3219 44.487 77.414 44.5484C77.5061 44.6099 77.6096 44.6524 77.7183 44.6733C77.94 44.7198 78.1706 44.7003 78.3815 44.6174C78.601 44.5346 78.7879 44.383 78.9143 44.1853C79.0388 43.9822 79.1102 43.7511 79.1219 43.5132C79.1394 43.0217 78.9832 42.5398 78.6808 42.1521C78.3663 41.7576 78.0041 41.4037 77.6024 41.0984L77.5957 41.1944C77.7658 41.0875 77.9114 40.946 78.0233 40.7791C78.1351 40.6121 78.2106 40.4236 78.2448 40.2256C78.326 39.8228 78.2864 39.405 78.131 39.0247C77.9604 38.6426 77.7189 38.2964 77.4192 38.0045C77.1174 37.7115 76.7969 37.4384 76.4597 37.1869L76.4664 37.2829C76.6127 37.1244 76.7242 36.937 76.7937 36.7328C76.8632 36.5285 76.8892 36.312 76.8699 36.0972C76.8401 35.6559 76.6803 35.2334 76.4106 34.883C75.8601 34.2764 75.1808 33.8007 74.4225 33.4908L74.4541 33.5609C74.5599 33.1355 74.5611 32.6909 74.4576 32.2651C74.3542 31.8393 74.1491 31.4449 73.8601 31.1158C73.571 30.7866 73.2065 30.5324 72.7977 30.375C72.3889 30.2175 71.9479 30.1614 71.5126 30.2116L71.5759 30.2816C71.6424 29.93 71.6274 29.5678 71.532 29.223C71.4366 28.8782 71.2634 28.56 71.0257 28.2927C70.8161 28.0351 70.5531 27.8259 70.255 27.6796C69.9569 27.5332 69.6305 27.4531 69.2984 27.4447L69.3512 27.4975C69.3415 27.1497 69.2533 26.8086 69.093 26.5C68.9327 26.1913 68.7045 25.9229 68.4256 25.7151C68.1881 25.5231 67.9138 25.3817 67.6195 25.2996C67.3253 25.2175 67.0173 25.1964 66.7145 25.2377L66.7606 25.276C66.7365 24.9046 66.622 24.5447 66.427 24.2279C66.2652 23.9444 66.0563 23.6906 65.8091 23.4774C65.4241 23.1256 64.9321 22.9131 64.4119 22.874L64.2593 22.8635C64.2104 22.8635 64.1634 22.8703 64.1154 22.8741C64.028 22.8847 63.932 22.8848 63.8553 22.9021C63.7233 22.9293 63.5935 22.9656 63.4665 23.0107C63.3715 23.0558 63.2947 23.0846 63.2381 23.1096C63.2124 23.1189 63.1877 23.1305 63.1642 23.1442C63.1642 23.1442 63.1929 23.1375 63.2448 23.1202C63.2966 23.1029 63.3782 23.0712 63.4771 23.0318C63.6043 22.9897 63.7346 22.9576 63.8668 22.9357C63.9436 22.9164 64.028 22.9193 64.124 22.9096C64.1701 22.9096 64.22 22.9029 64.2641 22.9029C64.3083 22.9029 64.3601 22.9096 64.4148 22.9172C64.9209 22.965 65.3973 23.1776 65.7707 23.5225C66.01 23.7344 66.2126 23.9844 66.3703 24.2624C66.5561 24.5684 66.6632 24.9156 66.6819 25.2732L66.6819 25.3193L66.727 25.3125C67.0175 25.2748 67.3125 25.2967 67.5942 25.3768C67.8758 25.4569 68.1381 25.5936 68.3652 25.7785C68.6311 25.9785 68.8483 26.236 69.0006 26.5319C69.1529 26.8277 69.2363 27.1542 69.2447 27.487L69.2447 27.5398L69.2974 27.5397C69.6136 27.5504 69.9238 27.6289 70.2069 27.7699C70.49 27.9109 70.7394 28.1112 70.9384 28.3571C71.1638 28.6115 71.3281 28.9142 71.4186 29.2419C71.5092 29.5696 71.5236 29.9138 71.4608 30.2481L71.4435 30.3287L71.5241 30.3181C71.9405 30.2701 72.3622 30.3238 72.7531 30.4746C73.144 30.6254 73.4925 30.8689 73.7686 31.184C74.0447 31.4992 74.2402 31.8767 74.3384 32.2842C74.4366 32.6916 74.4344 33.1169 74.3322 33.5235L74.3216 33.5724L74.3667 33.5935C75.1081 33.8957 75.7728 34.3591 76.3127 34.9503C76.5682 35.2794 76.7194 35.6775 76.7471 36.0934C76.7658 36.2911 76.7426 36.4904 76.679 36.6785C76.6155 36.8666 76.5129 37.0392 76.3781 37.1851L76.3292 37.234L76.3848 37.2762C77.0759 37.7216 77.6419 38.3359 78.0293 39.0612C78.1754 39.4199 78.2143 39.8134 78.1412 40.194C78.1097 40.3756 78.0407 40.5487 77.9385 40.7021C77.8363 40.8556 77.7032 40.986 77.5477 41.085L77.4776 41.1273L77.541 41.1801C77.9335 41.4781 78.288 41.8233 78.5964 42.2078C78.8862 42.5744 79.0376 43.0315 79.024 43.4988C79.025 43.7154 78.9616 43.9274 78.8419 44.1079C78.7222 44.2885 78.5516 44.4294 78.3518 44.5128C78.1687 44.5975 77.9625 44.6181 77.7664 44.5711C77.5703 44.5242 77.3959 44.4124 77.2712 44.254L77.2434 44.2117L77.2011 44.2434C76.9089 44.4621 76.562 44.5957 76.1987 44.6297C75.8354 44.6637 75.4699 44.5967 75.1424 44.4361C74.872 44.2952 74.6374 44.0943 74.4565 43.8488C74.2756 43.6033 74.1532 43.3197 74.0986 43.0196L74.0919 42.9735L74.0497 42.9946C73.8304 43.1021 73.5961 43.1757 73.3548 43.2128C73.1417 43.2491 72.9258 43.2656 72.7098 43.262C72.368 43.2675 72.0288 43.2023 71.7136 43.0703C71.516 42.9929 71.3497 42.8522 71.2406 42.6702C71.2032 42.607 71.1711 42.5409 71.1447 42.4724Z" fill="#455A64"/>
<path d="M86.7033 38.0986C86.7633 38.0223 86.8151 37.9399 86.8579 37.8529C86.9843 37.6012 87.0585 37.3266 87.0761 37.0456C87.1091 36.5938 86.9922 36.1438 86.7434 35.7654C86.5759 35.514 86.3578 35.3003 86.1029 35.1379C85.8481 34.9756 85.5622 34.8681 85.2635 34.8224L85.299 34.8714C85.435 34.177 85.3036 33.4571 84.9311 32.8559C84.7295 32.5184 84.4567 32.229 84.1317 32.0078C83.7775 31.7976 83.404 31.6216 83.0164 31.4822C82.8237 31.4026 82.6439 31.295 82.4828 31.1628C82.3218 31.0265 82.1947 30.8547 82.1115 30.6609C81.9292 30.2684 81.8737 29.8049 81.6415 29.3846C81.3977 28.9542 81.0305 28.6067 80.5873 28.3869C80.1441 28.167 79.6452 28.0849 79.1547 28.1511L79.2247 28.2212C79.2951 27.7251 79.2507 27.2195 79.095 26.7434C78.9392 26.2673 78.6763 25.8334 78.3264 25.475C77.9764 25.1166 77.5489 24.8433 77.0766 24.6762C76.6043 24.5091 76.0999 24.4525 75.6021 24.5109L75.6684 24.5771C75.7219 24.004 75.6058 23.4279 75.3346 22.9204C75.0635 22.4129 74.6491 21.9963 74.143 21.7223C73.681 21.4897 73.166 21.3826 72.6494 21.4117C72.1328 21.4409 71.6329 21.6053 71.1997 21.8884L71.2698 21.8932C70.8604 21.5055 70.3719 21.211 69.8378 21.0299C69.3655 20.8553 68.873 20.741 68.3721 20.6896C67.5619 20.6 66.7422 20.6549 65.951 20.8517C65.4427 20.9728 64.9568 21.1742 64.5118 21.4482C64.3951 21.5209 64.2838 21.6017 64.1786 21.6902C64.1405 21.7199 64.1043 21.752 64.0701 21.7862C64.0768 21.7968 64.2247 21.67 64.5262 21.4808C64.9738 21.2185 65.4598 21.0279 65.9663 20.916C66.752 20.7285 67.5645 20.6818 68.3663 20.7779C68.8589 20.8304 69.3428 20.9457 69.8061 21.1211C70.3246 21.3027 70.7974 21.5947 71.192 21.9767L71.2237 22.0084L71.2592 21.9834C71.6768 21.713 72.158 21.5567 72.6547 21.5301C73.1514 21.5035 73.6463 21.6075 74.0902 21.8318C74.574 22.0959 74.9697 22.4961 75.2283 22.9829C75.487 23.4696 75.5972 24.0215 75.5455 24.5705L75.5387 24.6473L75.6155 24.6367C76.0944 24.5804 76.5798 24.6347 77.0342 24.7954C77.4887 24.9561 77.9001 25.219 78.2369 25.5638C78.5737 25.9085 78.8268 26.326 78.9767 26.7841C79.1267 27.2421 79.1695 27.7285 79.1019 28.2059L79.0913 28.2865L79.1719 28.2721C79.638 28.2097 80.1121 28.2874 80.5336 28.4955C80.9552 28.7036 81.3051 29.0325 81.5388 29.4403C81.7566 29.8328 81.8159 30.2925 82.0087 30.7061C82.1014 30.9138 82.239 31.0983 82.4117 31.2463C82.5829 31.3821 82.7718 31.4941 82.9732 31.5791C83.356 31.7144 83.7249 31.8859 84.0751 32.0913C84.3891 32.3035 84.6536 32.581 84.8504 32.9049C85.2139 33.4855 85.3462 34.1814 85.2213 34.8551L85.2145 34.8973L85.2568 34.904C85.5459 34.9459 85.8231 35.0474 86.0709 35.2019C86.3187 35.3565 86.5317 35.5607 86.6964 35.8019C86.9428 36.1674 87.0633 36.6034 87.0396 37.0437C87.0271 37.32 86.9618 37.5914 86.8474 37.8433C86.76 38.0122 86.7004 38.0948 86.7033 38.0986Z" fill="#455A64"/>
<path d="M47.6382 39.2083C47.6641 39.157 47.6787 39.1007 47.6812 39.0433C47.6837 38.9859 47.674 38.9286 47.6527 38.8752C47.6056 38.7433 47.5234 38.6268 47.4148 38.5384C47.266 38.42 47.094 38.3341 46.91 38.2861C46.6852 38.2294 46.4701 38.1395 46.2718 38.0195C46.0516 37.8566 45.8903 37.6266 45.8122 37.364C45.7182 37.0623 45.6834 36.7451 45.7098 36.4301C45.7243 36.0932 45.7763 35.7351 45.7764 35.3531C45.6952 34.5317 45.5212 33.7222 45.2579 32.9401C45.1498 32.5004 45.131 32.0434 45.2027 31.5963C45.2354 31.3621 45.3185 31.1378 45.4463 30.9389C45.5742 30.7399 45.7437 30.5711 45.9432 30.4441C46.3981 30.2242 46.8791 30.0627 47.3745 29.9637C47.6359 29.8911 47.8836 29.7762 48.108 29.6237C48.3323 29.4563 48.5099 29.2341 48.6237 28.9784C48.8237 28.4594 48.9687 27.9207 49.0561 27.3714C49.1124 27.0998 49.2096 26.8383 49.3444 26.5957C49.4825 26.3588 49.6947 26.1739 49.9483 26.0695C50.317 25.9709 50.6966 25.9189 51.0781 25.9146C51.2767 25.8982 51.4712 25.8495 51.6541 25.7704C51.8368 25.6856 51.993 25.5528 52.1063 25.3863C52.2974 25.0609 52.4417 24.7103 52.5348 24.3447C52.6391 24.0046 52.8139 23.6902 53.0477 23.4221C53.2699 23.1657 53.5425 22.958 53.8487 22.8119C54.1548 22.6658 54.4877 22.5844 54.8266 22.5729C55.4629 22.5546 56.0821 22.7788 56.559 23.2001L56.6118 23.249L56.6435 23.1828C56.8749 22.6819 57.2104 22.2361 57.6277 21.8749C58.0449 21.5138 58.5342 21.2457 59.0631 21.0884C59.5062 20.9629 59.9691 20.923 60.4271 20.9709C60.8169 21.006 61.197 21.1116 61.5491 21.2825C62.0446 21.5251 62.4589 21.9064 62.7418 22.3802C62.8185 22.5032 62.8864 22.6315 62.9452 22.7641C62.9663 22.8063 62.9807 22.838 62.9941 22.8658C63.0075 22.8936 63.0114 22.9013 63.0114 22.8975C63.0114 22.8936 63.0114 22.8831 63.0008 22.8619C62.9903 22.8408 62.9759 22.7986 62.9586 22.7564C62.9063 22.6202 62.8421 22.4888 62.7668 22.3638C62.4897 21.8762 62.0748 21.4814 61.574 21.2287C61.2177 21.0501 60.8315 20.9383 60.4348 20.8989C59.9666 20.8443 59.4923 20.8813 59.0381 21.0078C58.494 21.1648 57.9896 21.4365 57.559 21.8045C57.1285 22.1725 56.7816 22.6284 56.5417 23.1415L56.6262 23.1242C56.1298 22.6828 55.4843 22.446 54.8199 22.4616C54.4647 22.4721 54.1155 22.5562 53.7942 22.7084C53.473 22.8607 53.1868 23.0779 52.9536 23.3463C52.7089 23.6248 52.5259 23.952 52.4167 24.3063C52.3278 24.6613 52.1883 25.0018 52.0027 25.3172C51.8925 25.4619 51.7509 25.5797 51.5886 25.6618C51.4263 25.7438 51.2475 25.7879 51.0657 25.7908C50.6733 25.7955 50.283 25.8498 49.9042 25.9524C49.6253 26.0656 49.3919 26.2683 49.2407 26.5286C49.0997 26.7816 48.9989 27.0549 48.9419 27.3388C48.8573 27.8814 48.7149 28.4134 48.5171 28.9257C48.4113 29.1636 48.2459 29.3703 48.037 29.5258C47.8251 29.6717 47.5901 29.7809 47.3419 29.8485C46.837 29.9529 46.3475 30.1218 45.8856 30.351C45.6664 30.4835 45.483 30.6678 45.3517 30.8878C45.2256 31.1007 45.14 31.335 45.0991 31.579C45.028 32.041 45.0513 32.5125 45.1677 32.9651C45.4313 33.7406 45.6097 34.5426 45.6996 35.3569C45.6995 35.7284 45.6533 36.0865 45.6397 36.4301C45.6162 36.7546 45.6555 37.0805 45.7556 37.39C45.8424 37.6634 46.0146 37.9019 46.2468 38.0704C46.4512 38.1896 46.6721 38.2781 46.9023 38.3331C47.0816 38.3763 47.2499 38.4563 47.3965 38.5681C47.5018 38.6526 47.5837 38.7626 47.6345 38.8877C47.6753 38.9904 47.6766 39.1046 47.6382 39.2083Z" fill="#455A64"/>
<path d="M39.6982 32.8816C39.7161 32.8583 39.7304 32.8324 39.7405 32.8048C39.7683 32.7491 39.8067 32.6713 39.8529 32.5763C39.9489 32.3661 40.095 32.0714 40.2746 31.6885C40.4543 31.3055 40.6675 30.8246 40.9624 30.3024C41.2723 29.6951 41.7465 29.1869 42.3309 28.8356C42.6612 28.657 43.0434 28.5369 43.4255 28.3688C43.624 28.283 43.8114 28.1734 43.9834 28.0423C44.1634 27.9009 44.3068 27.7181 44.4012 27.5096C44.5933 27.0853 44.6012 26.6045 44.7559 26.1659C44.8275 25.9446 44.9645 25.7502 45.1487 25.6082C45.3494 25.4717 45.5709 25.3686 45.8045 25.3028C46.0539 25.234 46.2961 25.141 46.5275 25.0252C46.7691 24.8962 46.9642 24.6947 47.0854 24.4492C47.2741 23.939 47.3925 23.4056 47.4373 22.8637C47.4762 22.598 47.568 22.3427 47.7073 22.1131C47.7821 22.0026 47.878 21.9079 47.9893 21.8345C48.1007 21.761 48.2255 21.7101 48.3565 21.6848C48.8931 21.5724 49.472 21.7612 50.0682 21.667C50.3678 21.6142 50.6431 21.468 50.8545 21.2493C51.0499 21.0351 51.2207 20.7997 51.3636 20.5476C51.5015 20.305 51.6515 20.0695 51.8131 19.842C51.9658 19.6225 52.1725 19.4459 52.4133 19.3294C52.9154 19.1639 53.4581 19.1688 53.957 19.3432C54.4574 19.502 54.987 19.5474 55.5073 19.4761C55.9908 19.3538 56.4484 19.1456 56.8583 18.8614C57.2373 18.6 57.6409 18.3762 58.0633 18.1931C58.8468 17.9307 59.6899 17.9038 60.4883 18.1155C61.1496 18.2835 61.7638 18.6 62.2842 19.041C62.6732 19.3773 63.0071 19.7726 63.2735 20.2124C63.4382 20.4929 63.58 20.7862 63.6975 21.0894C63.7359 21.1854 63.7676 21.2679 63.7935 21.3245C63.8194 21.3811 63.829 21.4051 63.829 21.4051C63.8218 21.3757 63.8115 21.347 63.7983 21.3197C63.7772 21.2602 63.749 21.1796 63.7139 21.0779C63.6077 20.7673 63.4715 20.4678 63.3071 20.1836C63.0438 19.7345 62.7112 19.3298 62.3216 18.9844C61.7964 18.5314 61.1751 18.2035 60.5046 18.0253C59.6896 17.8013 58.8261 17.8246 58.024 18.0923C57.5955 18.277 57.1855 18.5021 56.7997 18.7645C56.3996 19.0395 55.9539 19.2415 55.4834 19.361C54.9802 19.4228 54.4697 19.3751 53.9868 19.2213C53.7252 19.1543 53.4588 19.1075 53.19 19.0815C52.9087 19.0563 52.6254 19.1009 52.3653 19.2113C52.1057 19.3369 51.8822 19.5266 51.7162 19.7624C51.551 19.9925 51.3987 20.2316 51.2599 20.4785C51.1238 20.7242 50.9587 20.9527 50.7682 21.1591C50.5752 21.3601 50.3234 21.4946 50.049 21.5432C49.4912 21.6394 48.9162 21.4476 48.3296 21.5649C48.0348 21.6235 47.775 21.796 47.6066 22.045C47.458 22.2885 47.3599 22.5595 47.3183 22.8416C47.274 23.372 47.1595 23.8941 46.9779 24.3945C46.8669 24.6193 46.6891 24.8044 46.4689 24.9244C46.2433 25.0346 46.0084 25.1249 45.7671 25.1943C45.5216 25.2628 45.2892 25.3719 45.0796 25.517C44.8784 25.6726 44.7291 25.8855 44.6512 26.1275C44.4927 26.5901 44.4858 27.0671 44.3071 27.4635C44.1148 27.8417 43.786 28.1328 43.3871 28.2777C43.0117 28.4457 42.6296 28.5658 42.2887 28.7579C41.6939 29.1183 41.2134 29.6399 40.9029 30.2622C40.608 30.7949 40.4082 31.2758 40.2305 31.6616C40.0527 32.0475 39.9249 32.346 39.8298 32.5562C39.7876 32.6522 39.753 32.7318 39.728 32.7913C39.7134 32.8197 39.7034 32.8501 39.6982 32.8816Z" fill="#455A64"/>
<path d="M44.0569 28.6048C44.0331 28.5963 44.0082 28.5915 43.983 28.5904C43.9073 28.5867 43.832 28.6036 43.7652 28.6395C43.6435 28.7166 43.5427 28.8226 43.4719 28.9481C43.401 29.0736 43.3623 29.2146 43.3591 29.3587C43.359 29.5653 43.3883 29.7709 43.4462 29.9693C43.5148 30.1992 43.5503 30.4377 43.5515 30.6777C43.5217 30.9498 43.4225 31.2097 43.2634 31.4325C43.1059 31.6821 42.9024 31.9241 42.7421 32.2189C42.6473 32.371 42.5887 32.5428 42.5708 32.7211C42.553 32.8994 42.5763 33.0794 42.6391 33.2472C42.7685 33.5947 43.0227 33.8855 43.1434 34.2397C43.2503 34.6146 43.2093 35.0163 43.0289 35.3621C42.8714 35.7337 42.6448 36.0986 42.4854 36.5143C42.4001 36.7248 42.3564 36.9498 42.3566 37.1768C42.3606 37.4107 42.4131 37.6412 42.5109 37.8536C42.7339 38.2641 42.9932 38.6538 43.2857 39.0179C43.5856 39.3807 43.7394 39.8424 43.7171 40.3129C43.6059 40.7905 43.4386 41.2534 43.2186 41.6917C43.1229 41.9307 43.0718 42.1852 43.0677 42.4425C43.0735 42.6987 43.1391 42.9498 43.2594 43.1759C43.5067 43.5929 43.8018 43.9794 44.1388 44.3277C44.4559 44.6598 44.6996 45.0548 44.8542 45.4872C44.9668 45.9209 45.1084 46.3464 45.2779 46.7611C45.3753 46.9617 45.5165 47.1379 45.6912 47.2765C45.8653 47.402 46.0601 47.4959 46.2668 47.5538C46.4592 47.6088 46.6476 47.6767 46.8309 47.7571C47.0026 47.8424 47.1617 47.9509 47.3038 48.0795C47.5645 48.3403 47.7901 48.6339 47.9751 48.953C48.1612 49.2582 48.3357 49.5567 48.5323 49.8226C48.882 50.3168 49.382 50.6847 49.9577 50.8715C50.3865 51.0142 50.8421 51.0583 51.2904 51.0006C51.5731 50.9668 51.8481 50.8859 52.1041 50.7613C52.1926 50.7175 52.2782 50.6681 52.3603 50.6133C52.0248 50.7901 51.66 50.9044 51.2837 50.9507C50.8432 51.0001 50.3973 50.9501 49.9789 50.8042C49.4212 50.6167 48.9391 50.2538 48.6043 49.7698C48.4125 49.5068 48.2437 49.2083 48.0577 48.9001C47.8729 48.5711 47.6441 48.2689 47.3777 48.0017C47.2283 47.8649 47.0608 47.7493 46.8799 47.6582C46.6921 47.5774 46.5 47.5072 46.3043 47.4482C46.1096 47.3922 45.9259 47.3033 45.7613 47.1853C45.599 47.0574 45.4692 46.893 45.3825 46.7054C45.2175 46.295 45.0795 45.8743 44.9693 45.4459C44.8092 45.0014 44.5599 44.5944 44.2367 44.2499C43.907 43.9064 43.6174 43.5264 43.3736 43.1173C43.2623 42.9074 43.2013 42.6744 43.1953 42.4367C43.2002 42.1947 43.249 41.9556 43.3395 41.731C43.5623 41.2838 43.7309 40.8115 43.8418 40.3244C43.8703 40.0735 43.8375 39.8195 43.7461 39.5842C43.6555 39.3585 43.5366 39.1453 43.3923 38.9497C43.1016 38.5924 42.843 38.2102 42.6193 37.8075C42.5279 37.6105 42.478 37.3968 42.4727 37.1797C42.4749 36.9655 42.5166 36.7536 42.5958 36.5546C42.7408 36.1523 42.9673 35.7912 43.1325 35.4072C43.3204 35.0355 43.3593 34.6062 43.2413 34.207C43.1052 33.8259 42.8491 33.538 42.7264 33.2116C42.6677 33.0562 42.6454 32.8893 42.6612 32.7239C42.6771 32.5584 42.7307 32.3988 42.8179 32.2573C42.9725 31.9692 43.1721 31.7311 43.3305 31.4785C43.4927 31.2431 43.5919 30.97 43.6186 30.6854C43.6177 30.4392 43.5813 30.1944 43.5105 29.9587C43.4489 29.7672 43.4167 29.5675 43.4147 29.3663C43.4151 29.2278 43.4488 29.0913 43.513 28.9685C43.5772 28.8457 43.6699 28.7401 43.7834 28.6606C43.868 28.6179 43.9624 28.5987 44.0569 28.6048Z" fill="#455A64"/>
<path d="M73.5672 41.8043C73.7887 41.8878 73.995 42.0074 74.1775 42.1583C74.6915 42.5669 75.0432 43.1452 75.1695 43.7897C75.264 44.2339 75.253 44.6942 75.1374 45.1335C74.9985 45.6344 74.7423 46.0952 74.3901 46.4776C74.0049 46.9062 73.5154 47.2278 72.9691 47.4111C72.3788 47.6072 71.7432 47.6208 71.1453 47.4501C70.548 47.2842 70.0087 46.9553 69.5877 46.5003C69.1981 46.071 68.941 45.5381 68.8472 44.9658C68.7673 44.4863 68.7982 43.9949 68.9376 43.5292C69.077 43.0634 69.3213 42.6357 69.6516 42.2788C69.9194 42.0203 70.2351 41.8164 70.581 41.6786C70.8385 41.5698 71.1105 41.4989 71.3883 41.4681C71.5636 41.4486 71.7407 41.4544 71.9143 41.4852C71.9752 41.4955 72.0343 41.5142 72.09 41.5408C71.8618 41.4992 71.6284 41.4947 71.3988 41.5276C71.1296 41.567 70.8673 41.645 70.6203 41.7592C70.2888 41.8993 69.9873 42.1018 69.7322 42.3556C69.4206 42.7023 69.192 43.1154 69.0636 43.5634C68.9352 44.0115 68.9105 44.4828 68.9912 44.9417C69.0855 45.4825 69.3325 45.985 69.703 46.3899C70.1046 46.8236 70.62 47.1357 71.1905 47.2907C71.7568 47.4527 72.359 47.4401 72.9183 47.2546C73.439 47.0806 73.9066 46.7764 74.2769 46.3711C74.6166 46.0068 74.8666 45.5682 75.0068 45.0904C75.122 44.6717 75.1389 44.2322 75.0562 43.8061C74.9423 43.1817 74.6184 42.6153 74.1382 42.2005C73.7984 41.9155 73.5566 41.8216 73.5672 41.8043Z" fill="#E0E0E0"/>
<path d="M56.243 40.6147C55.7442 40.4333 55.2247 40.3151 54.6966 40.2629C54.4529 40.2265 54.2227 40.167 54.1891 39.9981C54.1789 39.7445 54.2459 39.4937 54.3813 39.2789L55.1906 37.4439C55.9369 35.8923 56.5573 34.2833 57.0458 32.6323C56.1787 34.1207 55.4323 35.6761 54.8137 37.2837C54.541 37.929 54.2811 38.5448 54.034 39.1312C53.8655 39.421 53.8049 39.7612 53.8629 40.0913C53.8942 40.179 53.945 40.2584 54.0115 40.3236C54.0779 40.3888 54.1583 40.438 54.2465 40.4675C54.3805 40.5106 54.5195 40.5363 54.66 40.5442C55.1811 40.6355 55.7117 40.6602 56.2391 40.6176" fill="#263238"/>
<path d="M60.3467 29.9122C60.4331 30.1769 61.398 30.097 62.5174 30.2827C63.6416 30.4464 64.5334 30.8163 64.6958 30.5899C64.763 30.4805 64.621 30.2302 64.2649 29.9598C63.7918 29.6224 63.2448 29.4029 62.6694 29.3196C62.0963 29.2237 61.5083 29.266 60.9546 29.443C60.5331 29.5908 60.3151 29.7866 60.3467 29.9122Z" fill="#263238"/>
<path d="M59.2842 42.0274C59.226 41.8921 59.1181 41.7843 58.9828 41.7261C58.8475 41.668 58.695 41.6639 58.5567 41.7147L55.9117 42.686L55.617 42.7936C55.7446 43.3327 55.9413 43.853 56.202 44.3416C56.3217 44.5517 56.486 44.733 56.6833 44.8727C56.8806 45.0124 57.1061 45.1072 57.3441 45.1504C57.7355 45.1775 58.1256 45.0803 58.4586 44.8726C58.7368 44.7451 58.985 44.5604 59.1869 44.3304C59.3888 44.1004 59.5398 43.8304 59.6302 43.5381C59.6412 43.0136 59.5224 42.4946 59.2842 42.0274Z" fill="#6F4439"/>
<path d="M60.3526 36.5475C60.3406 36.7857 60.4218 37.0192 60.5791 37.1983C60.7364 37.3775 60.9574 37.4883 61.1951 37.5071C61.3111 37.5216 61.4289 37.5127 61.5414 37.481C61.654 37.4493 61.7591 37.3954 61.8506 37.3225C61.942 37.2496 62.0179 37.1591 62.0739 37.0564C62.1298 36.9537 62.1647 36.8408 62.1764 36.7245C62.1885 36.4864 62.1074 36.2531 61.9503 36.074C61.7932 35.8948 61.5724 35.784 61.3349 35.7649C61.2188 35.7504 61.101 35.7592 60.9884 35.7909C60.8757 35.8226 60.7706 35.8765 60.6791 35.9494C60.5875 36.0224 60.5115 36.1128 60.4555 36.2156C60.3994 36.3183 60.3644 36.4311 60.3526 36.5475Z" fill="#263238"/>
<path d="M51.8292 36.5475C51.8171 36.7857 51.8984 37.0192 52.0557 37.1983C52.213 37.3775 52.4339 37.4883 52.6717 37.5071C52.7877 37.5216 52.9054 37.5127 53.018 37.481C53.1306 37.4493 53.2357 37.3954 53.3271 37.3225C53.4186 37.2496 53.4945 37.1591 53.5505 37.0564C53.6064 36.9537 53.6413 36.8408 53.6529 36.7245C53.665 36.4864 53.5839 36.2531 53.4268 36.074C53.2697 35.8948 53.049 35.784 52.8114 35.7649C52.6954 35.7504 52.5776 35.7592 52.4649 35.7909C52.3523 35.8226 52.2471 35.8765 52.1556 35.9494C52.0641 36.0224 51.9881 36.1128 51.932 36.2156C51.876 36.3183 51.841 36.4311 51.8292 36.5475Z" fill="#263238"/>
<path d="M51.204 32.9468C51.2913 33.084 51.9923 32.6089 52.8919 32.7084C53.7915 32.7934 54.3865 33.4024 54.4998 33.2834C54.5546 33.2316 54.4779 32.9956 54.2197 32.7175C53.8845 32.3684 53.4359 32.1497 52.9541 32.1005C52.4723 32.0513 51.9885 32.1747 51.5891 32.4488C51.2818 32.6667 51.1598 32.8845 51.204 32.9468Z" fill="#263238"/>
<path d="M59.8047 33.6872C59.9276 33.8282 60.6988 33.2295 61.7808 33.2377C62.8629 33.2307 63.65 33.8317 63.7691 33.6907C63.8276 33.6283 63.7048 33.3742 63.3612 33.102C62.9047 32.7545 62.3465 32.5664 61.7724 32.5664C61.2025 32.5635 60.6478 32.751 60.1967 33.0992C59.8605 33.3707 59.7443 33.624 59.8038 33.6872" fill="#263238"/>
<path d="M56.7425 44.8208C56.7348 44.8295 56.8174 44.935 57.0304 45.0358C57.3416 45.1628 57.6844 45.1911 58.0124 45.117C58.5008 45.0173 58.9504 44.7793 59.3075 44.4312C59.5265 44.2184 59.6799 43.9471 59.7493 43.6497C59.8146 43.3342 59.8056 43.0079 59.7227 42.6966C59.6464 42.3951 59.535 42.1036 59.3909 41.828C59.3557 41.7446 59.3034 41.6695 59.2372 41.6077C59.1711 41.5459 59.0927 41.4987 59.0071 41.4691C58.8424 41.4447 58.6742 41.4737 58.5271 41.5519L57.2148 42.0783C56.801 42.2201 56.404 42.4069 56.031 42.6354C56.4618 42.5591 56.8829 42.4357 57.2867 42.2674L58.623 41.7937C58.8918 41.6813 59.0176 41.6976 59.1423 41.9567C59.2727 42.2135 59.3746 42.4839 59.4463 42.7629C59.5285 43.0171 59.5415 43.2886 59.4841 43.5496C59.4267 43.8106 59.3008 44.0516 59.1194 44.248C58.8021 44.5707 58.4043 44.8029 57.9673 44.9203C57.6737 45.0037 57.3633 45.0074 57.0679 44.9311C56.8625 44.8707 56.7579 44.7988 56.7425 44.8208Z" fill="#263238"/>
</g>
</g>
</svg>
