<svg width="177" height="126" viewBox="0 0 177 126" fill="none" xmlns="http://www.w3.org/2000/svg">
<mask id="mask0_3_4032" style="mask-type:luminance" maskUnits="userSpaceOnUse" x="0" y="0" width="177" height="126">
<path d="M177 0H0V126H177V0Z" fill="white"/>
</mask>
<g mask="url(#mask0_3_4032)">
<path d="M116.911 26.153L123.271 29.353L123.954 28.019H123.948L132.112 11.878L115.829 3.46094L112.558 9.78296C112.419 9.98234 112.226 10.1387 112.003 10.2343C111.779 10.33 111.534 10.361 111.293 10.3239C111.053 10.2869 110.828 10.1832 110.644 10.0246C110.459 9.86604 110.323 9.65898 110.251 9.42694C110.071 8.76635 109.641 8.20215 109.051 7.85495C108.54 7.65763 107.974 7.65874 107.464 7.85809C106.954 8.05744 106.537 8.44058 106.295 8.93201C106.054 9.42343 106.005 9.98751 106.158 10.5132C106.312 11.0388 106.657 11.4879 107.125 11.7719C107.431 11.9446 107.775 12.0369 108.126 12.0403C108.478 12.0436 108.824 11.9578 109.133 11.791C109.282 11.7312 109.441 11.7032 109.601 11.7089C109.761 11.7146 109.919 11.7538 110.063 11.8239C110.206 11.8878 110.334 11.9793 110.442 12.0933C110.549 12.2072 110.633 12.3413 110.688 12.4878C110.743 12.6342 110.769 12.7902 110.763 12.9466C110.758 13.103 110.721 13.2567 110.656 13.399L106.944 20.9869L109.392 22.2249L113.078 24.1249C113.307 24.2162 113.5 24.3815 113.624 24.5945C113.749 24.8074 113.8 25.056 113.767 25.3008C113.735 25.5455 113.622 25.7725 113.446 25.9457C113.27 26.1189 113.041 26.2285 112.796 26.257C112.474 26.3261 112.169 26.4601 111.9 26.6508C111.632 26.8414 111.404 27.0847 111.233 27.3659C111.114 27.6185 111.048 27.893 111.04 28.1721C111.032 28.4512 111.082 28.7289 111.186 28.9879C111.29 29.247 111.447 29.4816 111.646 29.6773C111.845 29.8729 112.083 30.0253 112.344 30.1249C112.58 30.2855 112.846 30.3971 113.126 30.4532C113.405 30.5093 113.694 30.5087 113.973 30.4514C114.253 30.3942 114.518 30.2815 114.754 30.1199C114.989 29.9584 115.19 29.7513 115.344 29.511C115.471 29.1939 115.533 28.8549 115.528 28.5135C115.523 28.1722 115.451 27.8351 115.315 27.5219C115.253 27.3787 115.225 27.2235 115.231 27.0677C115.238 26.912 115.279 26.7597 115.352 26.6219C115.419 26.4851 115.515 26.3636 115.631 26.265C115.748 26.1665 115.883 26.0929 116.029 26.049C116.176 26.005 116.329 25.9915 116.481 26.0094C116.633 26.0273 116.779 26.0762 116.911 26.153Z" fill="#C0CFD5"/>
<path d="M47.6104 36.4877C46.1547 33.6123 44.9502 30.6165 44.0104 27.5337C43.0726 24.4365 42.9187 21.155 43.5624 17.9837C43.6734 17.5077 44.7224 14.2837 45.2114 14.2657C45.5604 14.2557 45.0364 17.2097 45.2494 17.4867C47.1961 20.2183 48.2673 23.4768 48.3214 26.8307C48.4422 30.0665 48.2024 33.3058 47.6064 36.4886" fill="#263238"/>
<path d="M68.813 61.4164C68.548 59.1574 67.292 47.8645 67.313 47.8625C67.313 47.8625 74.955 46.0924 74.482 38.3554C74.254 34.6184 73.156 26.9605 72.082 20.0435C71.5254 16.4579 69.6391 13.2134 66.7986 10.9557C63.9581 8.698 60.3716 7.59257 56.753 7.85944L56.007 7.91446C48 8.97546 44.428 16.3685 45.707 24.3435L51.507 61.4365L65.141 60.7874L68.813 61.4164Z" fill="#FFBF9D"/>
<path d="M67.3523 47.86C63.7818 48.1134 60.2134 47.3378 57.0703 45.625C57.0703 45.625 59.9103 51.183 67.5703 49.92L67.3523 47.86Z" fill="#FF9A6C"/>
<path d="M69.8305 27.2721C69.8547 27.5598 69.7654 27.8454 69.5817 28.0682C69.398 28.2909 69.1346 28.433 68.8475 28.4641C68.7079 28.4855 68.5654 28.4788 68.4284 28.4443C68.2914 28.4098 68.1627 28.3482 68.0499 28.2633C67.937 28.1783 67.8423 28.0716 67.7713 27.9495C67.7003 27.8273 67.6545 27.6922 67.6365 27.5521C67.6129 27.2648 67.7021 26.9796 67.8853 26.7571C68.0684 26.5345 68.3311 26.3921 68.6176 26.3601C68.7573 26.3385 68.9 26.3451 69.0372 26.3795C69.1743 26.4139 69.3032 26.4754 69.4163 26.5604C69.5293 26.6454 69.6242 26.7522 69.6953 26.8744C69.7665 26.9966 69.8125 27.1318 69.8305 27.2721Z" fill="#263238"/>
<path d="M70.6456 23.371C70.5186 23.524 69.6376 22.971 68.4456 23.058C67.2576 23.131 66.4316 23.806 66.2916 23.67C66.2236 23.61 66.3436 23.34 66.7026 23.036C67.1906 22.6419 67.7887 22.4086 68.4146 22.368C69.0318 22.3205 69.6481 22.4704 70.1746 22.796C70.5646 23.051 70.7046 23.302 70.6456 23.371Z" fill="#263238"/>
<path d="M59.0484 28.651C59.0725 28.9385 58.9834 29.2241 58.7999 29.4468C58.6164 29.6695 58.3532 29.8116 58.0664 29.843C57.9268 29.8645 57.7843 29.858 57.6473 29.8236C57.5104 29.7892 57.3816 29.7278 57.2688 29.6429C57.1559 29.558 57.0612 29.4513 56.9902 29.3292C56.9192 29.2071 56.8733 29.072 56.8554 28.932C56.8315 28.6445 56.9206 28.3591 57.1037 28.1364C57.2869 27.9136 57.5498 27.771 57.8364 27.739C57.9761 27.7174 58.1187 27.724 58.2558 27.7584C58.3929 27.7929 58.5218 27.8544 58.6347 27.9394C58.7477 28.0244 58.8425 28.1311 58.9135 28.2533C58.9846 28.3755 59.0304 28.5108 59.0484 28.651Z" fill="#263238"/>
<path d="M59.0832 24.7079C58.9572 24.8619 58.0742 24.3079 56.8832 24.3949C55.6962 24.4689 54.8692 25.1429 54.7292 25.0069C54.6612 24.9469 54.7802 24.6769 55.1412 24.3729C55.6287 23.9786 56.2264 23.7449 56.8522 23.7039C57.4695 23.6564 58.0859 23.8066 58.6122 24.1329C59.0022 24.3879 59.1452 24.6389 59.0832 24.7079Z" fill="#263238"/>
<path d="M63.9859 33.5201C64.5965 33.2785 65.2347 33.1139 65.8859 33.0301C66.1859 32.9761 66.4689 32.8951 66.5059 32.6841C66.508 32.3689 66.4142 32.0606 66.2369 31.8L65.1699 29.5571C64.1939 27.6617 63.3716 25.691 62.7109 23.6641C63.8375 25.4761 64.8163 27.3759 65.6379 29.3451C65.9979 30.1331 66.3413 30.8864 66.6679 31.605C66.8855 31.9567 66.9723 32.3738 66.9129 32.7831C66.8768 32.8932 66.8161 32.9937 66.7354 33.0768C66.6546 33.16 66.556 33.2237 66.4469 33.2631C66.2823 33.3211 66.1109 33.358 65.9369 33.373C65.2954 33.504 64.6399 33.5533 63.9859 33.5201Z" fill="#263238"/>
<path d="M69.6019 18.3765C69.4249 18.6695 68.5779 18.4855 67.5959 18.5865C66.6109 18.6535 65.8069 18.9785 65.5839 18.7195C65.4839 18.5925 65.5839 18.3085 65.9159 18.0115C66.3676 17.65 66.9165 17.4308 67.493 17.3817C68.0694 17.3325 68.6475 17.4557 69.1539 17.7355C69.5319 17.9685 69.6779 18.2345 69.6019 18.3765Z" fill="#263238"/>
<path d="M59.0996 21.9703C58.9066 22.2533 58.0706 22.0233 57.0856 22.0703C56.0986 22.0833 55.2786 22.3633 55.0696 22.0923C54.9776 21.9603 55.0916 21.6813 55.4396 21.4043C55.9101 21.0677 56.4701 20.8786 57.0484 20.8608C57.6267 20.843 58.1972 20.9973 58.6876 21.3043C59.0516 21.5613 59.1836 21.8333 59.0996 21.9703Z" fill="#263238"/>
<path d="M46.7538 30.0165C46.6178 29.9695 41.3278 28.8364 41.8848 34.1084C42.4418 39.3804 48.1268 37.9265 48.1198 37.7745C48.1128 37.6225 46.7538 30.0165 46.7538 30.0165Z" fill="#FFBF9D"/>
<path d="M45.8284 35.7558C45.8034 35.7408 45.7434 35.8298 45.5964 35.9168C45.3878 36.033 45.1423 36.0638 44.9114 36.0028C44.5483 35.8228 44.2396 35.5495 44.017 35.2108C43.7943 34.8722 43.6657 34.4805 43.6444 34.0758C43.5839 33.6252 43.6245 33.1667 43.7634 32.7338C43.7953 32.5639 43.868 32.4043 43.9754 32.2687C44.0827 32.1332 44.2213 32.0258 44.3794 31.9558C44.482 31.9168 44.595 31.9148 44.6989 31.9502C44.8028 31.9856 44.891 32.0562 44.9484 32.1498C45.0344 32.2898 45.0124 32.3988 45.0404 32.4048C45.0684 32.4108 45.1404 32.3048 45.0784 32.0918C45.0354 31.9642 44.95 31.8551 44.8364 31.7828C44.6795 31.689 44.4922 31.6603 44.3144 31.7028C44.1027 31.7687 43.9113 31.8876 43.7585 32.0483C43.6057 32.2089 43.4966 32.406 43.4414 32.6208C43.2658 33.1001 43.2099 33.615 43.2784 34.1208C43.3022 34.5928 43.4648 35.0474 43.7459 35.4274C44.027 35.8074 44.414 36.0959 44.8584 36.2568C45.0042 36.2826 45.154 36.2756 45.2967 36.2361C45.4394 36.1967 45.5716 36.1258 45.6834 36.0288C45.8344 35.8838 45.8494 35.7628 45.8284 35.7558Z" fill="#FF9A6C"/>
<path d="M67.6936 11.708C68.4936 11.14 65.6176 8.67305 63.4146 7.96305C60.0836 6.89005 55.1486 6.56305 52.3246 7.72205C48.9246 9.12205 46.2056 11.2051 44.8086 14.6061C43.4825 18.0577 43.0984 21.8 43.6956 25.449C43.7806 26.5733 44.1641 27.6546 44.8066 28.5811C45.6756 29.6621 47.1716 30.233 47.2936 31.846C47.3074 32.1392 47.3792 32.4267 47.5048 32.6919C47.6305 32.9571 47.8075 33.1947 48.0256 33.3911C49.1066 34.3061 50.1756 33.2071 50.6066 32.1801C51.5276 29.9801 51.3746 27.5071 51.2066 25.1321C51.1776 23.4366 50.8708 21.7573 50.2986 20.161C49.9406 19.3131 49.4316 18.531 49.1206 17.661C48.9382 17.2371 48.8502 16.7785 48.8626 16.3171C48.8751 15.8557 48.9876 15.4026 49.1926 14.9891C49.3032 14.8169 49.4298 14.6555 49.5706 14.5071C50.2315 13.7818 51.0736 13.2456 52.0102 12.9533C52.9469 12.6611 53.9445 12.6234 54.9006 12.8441C57.9866 13.5531 63.2316 14.5441 64.4386 13.3811C65.3114 12.6485 66.0213 11.7414 66.5226 10.7181L67.6936 11.708Z" fill="#151C1F"/>
<path d="M64.8781 36.696C64.8161 36.506 63.878 36.696 62.903 36.283C61.916 35.883 61.3881 35.092 61.2101 35.183C61.1261 35.223 61.1461 35.497 61.3631 35.868C61.6639 36.349 62.1077 36.7238 62.6322 36.9401C63.1566 37.1563 63.7356 37.2032 64.288 37.074C64.702 36.965 64.9081 36.785 64.8781 36.696Z" fill="#263238"/>
<path d="M50.9455 23.3696C49.6823 23.5327 48.402 23.5098 47.1455 23.3016C45.8734 23.2373 44.6205 22.9637 43.4375 22.4916C43.4605 22.4166 45.1115 22.7376 47.1855 22.9556C49.2595 23.1976 50.9455 23.2756 50.9455 23.3696Z" fill="#EBEBEB"/>
<path d="M38.6223 88.7169L27.1563 88.1339L38.0333 79.1339L29.2963 63.0469C29.2963 63.0469 11.0964 84.3769 9.50535 87.4139C7.72935 90.8139 6.22335 96.3429 11.1384 99.0459C14.5544 100.925 41.5563 100.731 41.5563 100.731L38.6223 88.7169Z" fill="#FFBF9D"/>
<path d="M54.2109 130.997V174.168H94.3519L98.9849 120.215L54.2109 130.997Z" fill="#29586F"/>
<path d="M84.6875 51.9023C84.6875 51.9023 106.888 71.2853 107.243 70.8153C107.598 70.3453 114.558 51.9023 114.558 51.9023L127.213 52.1563C127.213 52.1563 120.513 80.1183 116.405 83.7923C112.297 87.4663 107.712 86.2793 104.54 85.6553C101.368 85.0313 86.0875 70.9863 86.0875 70.9863L84.6875 51.9023Z" fill="#FFBF9D"/>
<path d="M50.4414 51.5411L32.6484 57.5661L36.5314 71.8401L44.3634 94.8131L53.5344 131.16L105.075 118.111L90.3324 72.3751L84.7044 51.9041L79.8864 50.1211L71.1704 51.4721L68.1824 51.2581C68.1824 51.2581 68.8924 55.0171 61.8634 55.2731C57.6404 55.4261 50.4414 51.5411 50.4414 51.5411Z" fill="#D9E7ED"/>
<path d="M89.1252 76.8707L95.3982 80.7857L102.476 65.5097C102.476 65.5097 88.6852 51.3447 84.1762 50.3917C79.6672 49.4387 78.0312 50.8337 78.0312 50.8337L89.1252 76.8707Z" fill="#D9E7ED"/>
<path d="M32.1258 87.614L16.3438 76.951C16.3438 76.951 26.8098 62.8939 28.2968 61.1609C29.5711 59.6283 31.1427 58.3696 32.9168 57.4609L39.3818 80.09L32.1258 87.614Z" fill="#D9E7ED"/>
<path d="M35.1425 67.1094C35.0795 67.1294 36.6035 72.0005 38.5425 77.9885C40.4815 83.9765 42.1085 88.8164 42.1715 88.7964C42.2345 88.7764 40.7105 83.9054 38.7715 77.9154C36.8325 71.9254 35.2045 67.0894 35.1425 67.1094Z" fill="#263238"/>
<path d="M89.1132 94.6244L74.0312 94.5534V97.8444H74.0462L74.2303 151.364L115.064 151.525L115.136 120.879C115.113 119.525 116.57 118.562 118.079 118.542C118.823 118.546 119.537 118.836 120.073 119.351C121.129 120.421 122.548 121.056 124.049 121.129C124.648 121.142 125.242 121.03 125.795 120.799C126.347 120.569 126.846 120.226 127.258 119.792C127.67 119.358 127.987 118.843 128.189 118.279C128.391 117.716 128.473 117.116 128.429 116.519C128.384 113.852 126.837 112.239 123.896 112.029C123.127 111.992 122.361 112.143 121.664 112.469C120.966 112.796 120.36 113.288 119.896 113.902C119.654 114.158 119.363 114.362 119.04 114.503C118.717 114.645 118.369 114.72 118.017 114.724C117.68 114.752 117.341 114.712 117.018 114.608C116.696 114.504 116.398 114.338 116.14 114.118C115.883 113.899 115.671 113.631 115.517 113.33C115.362 113.028 115.269 112.7 115.242 112.362L115.264 94.8824L108.835 94.8574L98.7792 94.7574C98.0923 94.7839 97.4229 94.5367 96.9182 94.07C96.4134 93.6033 96.1146 92.9553 96.0872 92.2684C96.0951 91.9259 96.1789 91.5894 96.3324 91.2832C96.486 90.977 96.7055 90.7086 96.9752 90.4974C97.8652 89.7844 99.1242 88.5104 99.1502 86.9974C99.1902 84.6434 97.1192 82.9704 94.1502 82.9304C91.1812 82.8904 89.0502 84.5064 89.0112 86.8594C88.9862 88.3774 90.2012 89.6854 91.0672 90.4214C91.3298 90.6403 91.5403 90.915 91.6834 91.2255C91.8264 91.5361 91.8985 91.8745 91.8943 92.2164C91.8415 92.9032 91.5198 93.5415 90.999 93.9924C90.4783 94.4433 89.8006 94.6704 89.1132 94.6244Z" fill="#586B76"/>
<path d="M141.023 134.132L156.105 134.061V137.352H156.09L155.906 175.068L115.072 175.229L115 160.387C115.023 159.033 113.566 158.07 112.057 158.05C111.313 158.054 110.599 158.344 110.063 158.859C109.007 159.929 107.588 160.563 106.087 160.637C105.488 160.65 104.894 160.538 104.341 160.307C103.789 160.077 103.29 159.734 102.878 159.3C102.466 158.866 102.149 158.351 101.947 157.787C101.745 157.224 101.663 156.624 101.707 156.027C101.752 153.36 103.299 151.747 106.24 151.537C107.009 151.499 107.775 151.65 108.472 151.977C109.169 152.303 109.776 152.795 110.24 153.41C110.482 153.666 110.773 153.87 111.096 154.011C111.419 154.152 111.766 154.228 112.119 154.232C112.456 154.259 112.795 154.22 113.117 154.116C113.439 154.012 113.738 153.846 113.995 153.626C114.253 153.407 114.465 153.139 114.619 152.838C114.773 152.536 114.867 152.208 114.894 151.87L114.872 134.39L121.301 134.365L131.357 134.265C132.044 134.292 132.713 134.044 133.218 133.578C133.722 133.111 134.021 132.463 134.049 131.776C134.041 131.434 133.957 131.097 133.803 130.791C133.65 130.485 133.43 130.216 133.161 130.005C132.271 129.292 131.012 128.018 130.986 126.505C130.946 124.151 133.017 122.478 135.986 122.438C138.955 122.398 141.086 124.014 141.125 126.367C141.15 127.885 139.935 129.193 139.069 129.929C138.806 130.148 138.596 130.423 138.452 130.733C138.309 131.044 138.237 131.382 138.242 131.724C138.294 132.411 138.616 133.049 139.137 133.5C139.658 133.951 140.335 134.178 141.023 134.132Z" fill="#35454D"/>
<path d="M140.162 94.8472C139.475 94.8032 138.798 95.032 138.279 95.484C137.76 95.936 137.44 96.5746 137.388 97.2612C137.383 97.6039 137.455 97.9434 137.598 98.2548C137.741 98.5663 137.952 98.8418 138.215 99.0612C139.081 99.7982 140.296 101.105 140.271 102.623C140.231 104.976 138.105 106.593 135.132 106.552C132.159 106.511 130.089 104.838 130.132 102.485C130.157 100.967 131.417 99.6932 132.306 98.9852C132.576 98.7739 132.796 98.5054 132.949 98.199C133.103 97.8926 133.187 97.5559 133.194 97.2132C133.181 96.6474 132.975 96.103 132.612 95.6691C132.249 95.2351 131.749 94.9372 131.194 94.8242L118.645 94.8742L115.271 94.9162L115.249 112.371C115.276 112.709 115.37 113.037 115.524 113.339C115.678 113.64 115.89 113.908 116.147 114.127C116.405 114.347 116.704 114.513 117.026 114.617C117.348 114.721 117.687 114.76 118.024 114.733C118.377 114.729 118.724 114.653 119.047 114.512C119.37 114.371 119.661 114.167 119.903 113.911C120.367 113.296 120.973 112.804 121.671 112.478C122.368 112.151 123.134 112 123.903 112.038C126.844 112.248 128.391 113.86 128.436 116.528C128.48 117.125 128.398 117.725 128.196 118.288C127.994 118.852 127.677 119.367 127.265 119.801C126.853 120.235 126.354 120.578 125.802 120.808C125.249 121.039 124.655 121.151 124.056 121.138C122.555 121.064 121.136 120.43 120.08 119.36C119.714 119.02 119.27 118.776 118.787 118.65C118.303 118.523 117.796 118.518 117.311 118.635C116.825 118.752 116.376 118.987 116.003 119.32C115.63 119.652 115.346 120.072 115.174 120.541C115.196 120.655 115.206 120.77 115.205 120.886L115.07 135.731L156.111 135.567L155.636 94.9242L140.162 94.8472Z" fill="#768A95"/>
<path d="M139.962 95.0092L155.629 94.9092V91.7842H155.614L155.432 54.0673L115.104 53.9062L115.032 68.7483C115.054 70.1023 113.616 71.0652 112.125 71.0852C111.388 71.0803 110.683 70.7904 110.156 70.2762C109.119 69.2082 107.715 68.5729 106.229 68.4983C105.634 68.4896 105.044 68.6052 104.496 68.8376C103.948 69.0701 103.455 69.4143 103.048 69.8481C102.641 70.282 102.329 70.7961 102.132 71.3575C101.935 71.9188 101.857 72.5151 101.904 73.1082C101.948 75.7752 103.476 77.3882 106.381 77.5982C107.143 77.635 107.902 77.4833 108.591 77.1566C109.281 76.8299 109.879 76.3383 110.333 75.7253C110.571 75.4703 110.858 75.2661 111.177 75.1248C111.496 74.9836 111.84 74.9082 112.189 74.9033C112.524 74.8779 112.861 74.9189 113.18 75.024C113.499 75.1291 113.794 75.2961 114.049 75.5155C114.304 75.7349 114.512 76.0025 114.663 76.3027C114.814 76.603 114.904 76.9301 114.929 77.2653L115.263 94.8752L121.299 94.8482L130.42 94.8723C131.102 94.8499 131.766 95.0995 132.264 95.5663C132.763 96.0331 133.055 96.6787 133.078 97.3612C133.031 97.7095 132.911 98.044 132.726 98.3427C132.541 98.6415 132.295 98.8979 132.004 99.0952C131.45 99.5171 130.99 100.05 130.654 100.66C130.318 101.27 130.114 101.944 130.054 102.637C130.015 104.991 132.06 106.664 134.996 106.705C137.932 106.746 140.223 105.068 140.263 102.715C140.187 101.997 139.967 101.302 139.614 100.672C139.261 100.042 138.784 99.4906 138.211 99.0512C137.952 98.8502 137.743 98.5924 137.599 98.2976C137.456 98.0028 137.383 97.679 137.385 97.3513C137.392 97.0255 137.465 96.7046 137.6 96.4081C137.735 96.1116 137.929 95.8457 138.17 95.6266C138.411 95.4074 138.694 95.2397 139.002 95.1336C139.31 95.0274 139.637 94.9851 139.962 95.0092Z" fill="#35454D"/>
<g opacity="0.3">
<path d="M114.891 53.951C117.719 52.785 120.718 55.1761 123.546 54.0101C123.95 53.7887 124.417 53.7125 124.87 53.7941C125.121 53.9069 125.34 54.0799 125.509 54.2978C125.677 54.5156 125.789 54.7716 125.834 55.043C126.014 55.7834 126.036 56.5531 125.899 57.3025C125.763 58.0519 125.471 58.7645 125.042 59.3941C124.17 60.6514 122.943 61.6203 121.517 62.177C120.401 62.6961 119.144 62.8304 117.943 62.559C115.89 61.982 114.864 56.082 114.891 53.951Z" fill="black"/>
</g>
<path d="M114.334 52.0877C114.748 51.8601 115.083 51.5112 115.293 51.0877C115.624 50.1877 118.133 49.7257 118.133 49.7257C118.532 49.5075 118.944 49.3158 119.368 49.1517C120 48.9147 121.404 49.8517 121.404 49.8517C121.802 49.5359 122.303 49.3788 122.81 49.4109C123.318 49.4431 123.795 49.6621 124.15 50.0257C124.511 50.2372 124.852 50.4809 125.17 50.7537C125.25 50.6641 125.353 50.5981 125.469 50.5628C125.584 50.5276 125.706 50.5244 125.823 50.5537C126.212 50.6049 126.578 50.7697 126.875 51.0276C127.171 51.2855 127.385 51.625 127.49 52.0037C127.883 53.1599 128.151 54.3546 128.29 55.5677C128.001 56.7963 127.546 57.9799 126.938 59.0857C126.938 59.0857 125.796 59.7947 125.055 59.4707C124.314 59.1467 125.155 56.8527 125.155 56.8527L124.524 53.7527C124.524 53.7527 123.47 60.5267 122.946 61.3257C122.422 62.1247 120.746 62.0067 120.746 62.0067C119.084 63.4427 118.291 62.1907 118.291 62.1907C118.291 62.1907 118.091 62.4117 117.345 62.0907C116.599 61.7697 115.293 53.9737 115.293 53.9737L113.047 54.2477C113.058 53.8074 113.182 53.3773 113.407 52.9989C113.633 52.6205 113.952 52.3067 114.334 52.0877Z" fill="#FFBF9D"/>
<path d="M121.891 51.9297C121.857 52.0606 121.837 52.1946 121.83 52.3297C121.801 52.6147 121.762 52.9797 121.717 53.4167C121.628 54.3347 121.517 55.6047 121.401 57.0077C121.343 58.2053 121.214 59.3984 121.015 60.5807C120.941 60.935 120.839 61.283 120.711 61.6217C120.656 61.7436 120.609 61.8688 120.57 61.9967C120.57 61.9967 120.595 61.9697 120.629 61.9107C120.679 61.8244 120.724 61.7356 120.765 61.6447C120.915 61.3098 121.033 60.9616 121.118 60.6047C121.349 59.4219 121.494 58.2237 121.55 57.0197C121.665 55.6197 121.76 54.3457 121.821 53.4197L121.885 52.3287C121.9 52.1962 121.902 52.0626 121.891 51.9297Z" fill="#FF9A6C"/>
<path d="M118.622 51.918C118.594 52.0512 118.579 52.1869 118.578 52.323C118.561 52.612 118.54 52.983 118.514 53.428C118.467 54.362 118.414 55.652 118.362 57.077C118.31 58.502 118.274 59.793 118.254 60.728C118.247 61.173 118.242 61.545 118.238 61.835C118.23 61.9708 118.235 62.1071 118.253 62.242C118.28 62.1104 118.295 61.9764 118.297 61.842C118.314 61.553 118.335 61.182 118.36 60.737C118.407 59.803 118.46 58.513 118.513 57.087C118.566 55.661 118.601 54.371 118.621 53.436C118.628 52.991 118.632 52.619 118.637 52.329C118.645 52.1918 118.64 52.0542 118.622 51.918Z" fill="#FF9A6C"/>
<path d="M45.3346 88.8489L24.0026 88.1719L21.2266 100.248L44.0946 101.073L45.3346 88.8489Z" fill="#FFBF9D"/>
<path d="M14.4453 87.1363C14.4503 87.1783 15.1873 87.0843 16.3813 87.0823C17.9384 87.0958 19.4932 87.203 21.0373 87.4033L25.6793 88.0143C26.2793 88.0883 26.7573 88.1413 27.0923 88.1683C27.2653 88.1952 27.4408 88.2016 27.6153 88.1873C27.4499 88.1304 27.2784 88.0932 27.1043 88.0763L25.7043 87.8483C24.5203 87.6603 22.8863 87.3883 21.0663 87.1673C19.5128 86.9629 17.9458 86.8783 16.3793 86.9143C16.0793 86.9213 15.8073 86.9413 15.5683 86.9643C15.3293 86.9873 15.1253 87.0033 14.9593 87.0323C14.7845 87.0468 14.612 87.0817 14.4453 87.1363Z" fill="#FF9A6C"/>
<path d="M88.7661 72.8084C88.6685 72.481 88.5071 72.1762 88.291 71.9116C88.0749 71.647 87.8085 71.4279 87.5072 71.2669C87.2059 71.1059 86.8757 71.0063 86.5356 70.9737C86.1955 70.9412 85.8524 70.9764 85.5261 71.0774C85.1882 71.1693 84.8733 71.3307 84.6014 71.5513C84.3295 71.7718 84.1066 72.0467 83.9471 72.3584C83.678 73.0765 83.2314 73.7147 82.6489 74.2134C82.0664 74.7121 81.367 75.0551 80.6161 75.2104C77.7651 75.6984 75.883 74.4344 75.163 71.7434C74.4431 69.0524 75.6721 66.6894 78.163 66.0274C79.6319 65.7487 81.1516 66.0548 82.398 66.8804C82.7079 67.0739 83.053 67.204 83.4135 67.2631C83.774 67.3221 84.1427 67.309 84.4981 67.2244C85.9291 66.8444 87.0701 65.5244 86.7051 64.1544L84.0911 53.5184L82.9641 49.1094L43.6641 59.1344L53.7571 100.196L68.3221 96.7964C69.0075 96.6547 69.6089 96.2474 69.9948 95.6634C70.3807 95.0795 70.5195 94.3664 70.3811 93.6804C70.3009 93.3363 70.1474 93.0136 69.9312 92.7342C69.715 92.4548 69.441 92.2253 69.1281 92.0614C68.4601 91.767 67.8594 91.339 67.3633 90.8036C66.8671 90.2682 66.4858 89.6368 66.2431 88.9484C65.6841 86.5544 67.3221 84.4034 70.1961 83.7264C73.0701 83.0494 75.4891 84.2454 76.049 86.6394C76.1361 87.365 76.0742 88.1008 75.867 88.8017C75.6598 89.5025 75.3117 90.1537 74.844 90.7154C74.6363 91.0017 74.4926 91.3295 74.4228 91.6763C74.3529 92.0231 74.3584 92.3809 74.4391 92.7254C74.5831 93.2856 74.911 93.7812 75.3703 94.1328C75.8296 94.4844 76.3937 94.6716 76.9721 94.6644L90.096 91.3204L93.1791 90.5034L88.7661 72.8084Z" fill="#35454D"/>
<path d="M38.8047 92.193L44.6047 84.4L49.1787 81L49.2257 83.343C49.2257 83.343 58.2627 82.433 59.5727 82.743C60.3727 82.934 61.5267 85.183 59.7637 85.686C60.1841 85.8637 60.5588 86.1342 60.8597 86.4773C61.1607 86.8204 61.3802 87.2271 61.5017 87.667C61.7787 89.061 61.0807 89.717 59.4267 90.252C59.4267 90.252 61.2767 91.23 60.8967 92.444C60.7413 92.831 60.5067 93.1812 60.2079 93.472C59.9091 93.7629 59.5527 93.9881 59.1617 94.133C59.1617 94.133 60.1547 96.006 59.2617 96.701C57.7349 97.6837 56.0699 98.4326 54.3217 98.923L48.2477 100.128L44.4527 101.217L38.8047 92.193Z" fill="#FFBF9D"/>
<path d="M54.3047 86.8627C55.2408 86.883 56.1744 86.7572 57.0717 86.4897C57.9992 86.3635 58.9013 86.0936 59.7457 85.6897C58.8096 85.6691 57.8761 85.7946 56.9787 86.0616C56.0512 86.1884 55.1491 86.4587 54.3047 86.8627Z" fill="#FF9A6C"/>
<path d="M54.9766 91.2555C56.4795 91.2455 57.9658 90.9397 59.3506 90.3555C57.8477 90.3662 56.3616 90.672 54.9766 91.2555Z" fill="#FF9A6C"/>
<path d="M55.4375 94.9516C55.4815 95.0766 56.3085 94.8326 57.2995 94.5796C57.926 94.5049 58.5416 94.3569 59.1335 94.1386C58.5041 93.9279 57.8225 93.9332 57.1965 94.1536C56.5477 94.2521 55.9389 94.5283 55.4375 94.9516Z" fill="#FF9A6C"/>
<path d="M48.125 83.7513C49.0444 83.7693 49.9622 83.6668 50.855 83.4462C51.7714 83.3681 52.6736 83.1694 53.538 82.8552C51.6901 82.7651 49.8443 83.072 48.125 83.7553V83.7513Z" fill="#FF9A6C"/>
</g>
</svg>
