<svg width="223" height="149" viewBox="0 0 223 149" fill="none" xmlns="http://www.w3.org/2000/svg">
<mask id="mask0_36_1297" style="mask-type:luminance" maskUnits="userSpaceOnUse" x="0" y="0" width="223" height="149">
<path d="M222.436 0H0.213531V148.889H222.436V0Z" fill="white"/>
</mask>
<g mask="url(#mask0_36_1297)">
<path d="M123.345 97.0996L139.302 92.7974C139.302 92.7974 135.88 82.6752 133.221 75.3641C131.698 71.0027 128.762 67.2748 124.879 64.7719C124.049 64.1797 123.088 63.7984 122.079 63.6608C118.301 63.1585 107.98 61.803 102.856 61.3741C96.523 60.8452 83.2886 64.3307 83.2886 64.3307C83.2886 64.3307 71.6808 70.7674 67.7708 73.3641C66.8118 74 66.079 74.9235 65.6775 76.0019C64.9553 77.9485 64.0342 81.293 62.9297 85.6163C62.2286 88.3685 59.9097 97.4652 59.9097 97.4652L73.5164 97.0463C76.2586 105.373 78.7975 112.852 78.7975 112.852L76.3319 128.171C76.3319 128.171 94.9319 135.607 99.6842 135.079C104.436 134.55 125.972 126.234 125.972 126.234C125.972 126.234 123.506 101.94 123.506 101.234C123.512 100.967 123.443 99.2041 123.345 97.0996Z" fill="#B61D2D"/>
<g opacity="0.3">
<path d="M107.661 80.9033C107.127 80.2937 106.451 79.8257 105.692 79.5409C104.933 79.2562 104.116 79.1634 103.313 79.2711C101.706 79.5059 100.181 80.1333 98.8747 81.0977C94.7503 83.8977 91.8203 88.1155 89.2292 92.3755C84.7122 99.7988 80.917 107.638 77.8958 115.786L78.0003 117.869C81.3814 117.44 83.5892 114.588 85.0603 111.51C86.5314 108.432 87.1592 105.026 88.457 101.87C90.9769 95.8122 95.7915 90.9977 101.849 88.4777C102.857 88.6078 103.881 88.4962 104.838 88.1523C105.794 87.8085 106.655 87.2421 107.349 86.5C108.016 85.7347 108.409 84.7689 108.466 83.7552C108.522 82.7415 108.239 81.738 107.661 80.9033Z" fill="black"/>
</g>
<path d="M123.508 99.7407C123.435 99.7407 122.979 95.3285 122.498 89.8707C122.017 84.4129 121.687 79.9818 121.76 79.974C121.834 79.9662 122.289 84.3862 122.77 89.844C123.251 95.3018 123.581 99.7307 123.508 99.7407Z" fill="#263238"/>
<path d="M69.901 79.974C69.992 80.1946 70.0587 80.4245 70.0999 80.6596C70.2199 81.1562 70.3666 81.7896 70.5499 82.5484C70.9166 84.1496 71.4033 86.364 71.9266 88.8073C72.4499 91.2507 72.9055 93.474 73.2244 95.0873C73.371 95.8518 73.491 96.4951 73.5855 96.9973C73.6421 97.2288 73.6737 97.4658 73.6799 97.704C73.589 97.4834 73.5223 97.2535 73.481 97.0184C73.361 96.5218 73.2144 95.8884 73.0366 95.1296C72.6699 93.5284 72.1833 91.314 71.6599 88.8651C71.1366 86.4162 70.681 84.1985 70.3622 82.5851C70.2155 81.8207 70.0955 81.1773 70.001 80.6751C69.941 80.446 69.9074 80.2108 69.901 79.974Z" fill="#263238"/>
<path d="M121.078 63.8542C121.157 63.8754 120.697 65.6443 120.384 67.8731C120.071 70.102 120.003 71.9242 119.919 71.9242C119.849 71.5273 119.831 71.1226 119.867 70.7209C119.892 69.7539 119.973 68.7893 120.112 67.832C120.248 66.8737 120.441 65.9245 120.692 64.9898C120.769 64.5954 120.898 64.2134 121.078 63.8542Z" fill="#263238"/>
<path d="M123.365 97.0955C123.223 97.1377 127.42 111.567 127.42 111.567L115.087 110.567L109.198 117.789L130.226 125.534C130.226 125.534 143.252 119.726 143.252 119.201C143.252 118.677 138.568 93.0122 138.568 93.0122L123.365 97.0955Z" fill="#FFC09D"/>
<path d="M114.294 98.7636C114.414 98.7601 114.533 98.7318 114.642 98.6806C114.751 98.6294 114.848 98.5562 114.927 98.4658C115.023 98.3588 115.096 98.2338 115.141 98.098C115.187 97.9622 115.205 97.8186 115.194 97.6758C115.167 97.4829 115.085 97.302 114.958 97.1544C114.831 97.0069 114.664 96.899 114.477 96.8436C114.247 96.762 113.999 96.7423 113.758 96.7864C113.518 96.8304 113.293 96.9367 113.106 97.0947C112.89 97.2749 112.715 97.4996 112.593 97.7536C112.527 97.8884 112.473 98.0285 112.431 98.1725C112.394 98.3191 112.347 98.4813 112.41 98.5758C112.454 98.6251 112.512 98.6604 112.576 98.6772C112.64 98.694 112.708 98.6916 112.771 98.6702C112.918 98.6267 113.046 98.5366 113.137 98.4135C113.234 98.2803 113.298 98.1258 113.324 97.9629C113.349 97.8001 113.336 97.6335 113.284 97.4769C113.204 97.3137 113.092 97.1681 112.956 97.0486C112.819 96.9291 112.659 96.8382 112.487 96.7812C112.314 96.7241 112.132 96.7022 111.951 96.7165C111.77 96.7308 111.593 96.7812 111.432 96.8647C111.064 97.0311 110.743 97.2843 110.495 97.6025C110.369 97.7538 110.288 97.9367 110.26 98.1313C110.247 98.2156 110.266 98.3015 110.314 98.3723C110.361 98.443 110.433 98.4934 110.516 98.5135C110.61 98.5248 110.706 98.5146 110.795 98.4838C110.885 98.4531 110.967 98.4024 111.034 98.3358C111.176 98.1903 111.261 97.9994 111.275 97.7969C111.286 97.5801 111.242 97.364 111.145 97.1694C111.049 96.9749 110.904 96.8083 110.725 96.6858C110.53 96.5677 110.312 96.4917 110.086 96.4628C109.86 96.4339 109.63 96.4527 109.412 96.518C109.183 96.568 108.968 96.6699 108.785 96.8159C108.601 96.962 108.454 97.1482 108.354 97.3602C108.303 97.459 108.274 97.5675 108.269 97.6785C108.263 97.7895 108.282 97.9003 108.323 98.0036C108.371 98.0989 108.447 98.1777 108.54 98.23C108.633 98.2822 108.74 98.3055 108.846 98.2969C108.959 98.2909 109.069 98.2595 109.167 98.205C109.266 98.1506 109.351 98.0745 109.416 97.9824C109.476 97.8844 109.512 97.7743 109.523 97.6602C109.534 97.5462 109.519 97.4311 109.48 97.3236C109.395 97.0907 109.236 96.8927 109.026 96.7608C108.817 96.629 108.569 96.5709 108.323 96.5958C107.791 96.6397 107.293 96.8741 106.921 97.2558C106.715 97.4346 106.532 97.6384 106.376 97.8624C106.3 97.9561 106.246 98.0664 106.22 98.1844C106.193 98.3025 106.195 98.4251 106.224 98.5424C106.25 98.5891 106.286 98.6299 106.328 98.6624C106.371 98.6949 106.42 98.7185 106.472 98.7317C106.524 98.7449 106.578 98.7474 106.631 98.7391C106.683 98.7308 106.734 98.712 106.78 98.6836C106.885 98.6232 106.971 98.534 107.027 98.4266C107.084 98.3192 107.108 98.1978 107.098 98.0769C107.081 97.8036 106.997 97.5388 106.854 97.3053C106.711 97.0718 106.513 96.8767 106.277 96.7369C106.04 96.5874 105.77 96.4975 105.49 96.4746C105.21 96.4518 104.929 96.4968 104.671 96.6058C104.408 96.708 104.175 96.8755 103.995 97.0924C103.907 97.1924 103.84 97.3095 103.798 97.4364C103.757 97.5633 103.742 97.6973 103.754 97.8302C103.806 98.3591 104.675 98.4636 104.957 98.0236C105.028 97.9073 105.074 97.7783 105.094 97.644C105.114 97.5097 105.106 97.3728 105.073 97.2413C105.039 97.1097 104.98 96.9862 104.898 96.8778C104.816 96.7695 104.714 96.6785 104.596 96.6102C104.348 96.4694 104.07 96.3882 103.785 96.3727C103.5 96.3573 103.215 96.4082 102.953 96.5213C102.679 96.6265 102.416 96.7579 102.167 96.9135C101.922 97.05 101.711 97.2399 101.55 97.4691C101.477 97.5711 101.435 97.6912 101.427 97.8159C101.418 97.9406 101.445 98.0651 101.503 98.1758C101.524 98.2269 101.557 98.2728 101.597 98.3103C101.638 98.3478 101.687 98.3759 101.74 98.3928C101.792 98.4097 101.848 98.415 101.903 98.4082C101.958 98.4014 102.011 98.3828 102.058 98.3536C102.161 98.2898 102.243 98.1972 102.293 98.0873C102.343 97.9774 102.36 97.8551 102.341 97.7358C102.305 97.4743 102.194 97.2288 102.022 97.0291C101.853 96.8251 101.637 96.6655 101.393 96.5642C101.149 96.4629 100.883 96.423 100.62 96.448C100.363 96.4746 100.117 96.5633 99.903 96.7064C99.6886 96.8494 99.5124 97.0426 99.3896 97.2691C99.3337 97.3725 99.3006 97.4868 99.2926 97.6041C99.2845 97.7213 99.3017 97.839 99.3429 97.9491C99.3929 98.0457 99.4733 98.1232 99.5717 98.1696C99.6701 98.216 99.781 98.2287 99.8873 98.2058C99.9993 98.1922 100.106 98.1498 100.197 98.0828C100.287 98.0159 100.359 97.9265 100.405 97.8235C100.448 97.7156 100.469 97.6002 100.466 97.4842C100.463 97.3681 100.437 97.2538 100.39 97.148C100.287 96.9312 100.131 96.7439 99.9371 96.6031C99.7429 96.4623 99.5164 96.3727 99.2785 96.3425C98.8039 96.2406 98.3117 96.2551 97.844 96.3847C97.6267 96.4342 97.4268 96.5416 97.2656 96.6956C97.1044 96.8495 96.9879 97.0443 96.9284 97.2591C96.882 97.4631 96.9071 97.677 96.9995 97.8647C97.092 98.0524 97.2462 98.2027 97.4362 98.2902C97.6331 98.3279 97.8369 98.2863 98.0033 98.1746C98.1697 98.0629 98.2854 97.89 98.3251 97.6936C98.3643 97.4959 98.3553 97.2917 98.2989 97.0983C98.2424 96.9049 98.1401 96.7279 98.0007 96.5825C97.7377 96.2831 97.3883 96.0726 97.0007 95.9802C96.6368 95.8904 96.2565 95.8906 95.8927 95.9809C95.529 96.0711 95.1926 96.2486 94.9129 96.498C94.6586 96.7265 94.4812 97.0281 94.4051 97.3613C94.3683 97.5111 94.3737 97.6682 94.4208 97.8151C94.4679 97.962 94.5548 98.093 94.6718 98.1936C94.7786 98.2843 94.9152 98.3324 95.0553 98.3285C95.1954 98.3246 95.3291 98.269 95.4307 98.1725C95.5311 98.0824 95.6073 97.9686 95.6521 97.8414C95.697 97.7142 95.7091 97.5778 95.6873 97.4446C95.6448 97.2037 95.5465 96.976 95.4003 96.7798C95.254 96.5836 95.0639 96.4243 94.8451 96.3147C94.4953 96.1247 94.0898 96.0638 93.6996 96.1424C93.4134 96.2024 93.1463 96.3318 92.9218 96.5191C92.7392 96.678 92.5838 96.8657 92.4618 97.0747C92.481 97.0143 92.5075 96.9564 92.5407 96.9025C92.6307 96.7409 92.7476 96.5959 92.8862 96.4735C93.1119 96.2692 93.3856 96.1251 93.6818 96.0547C94.0924 95.9623 94.5225 96.0178 94.8962 96.2113C95.1353 96.3266 95.3438 96.4967 95.5048 96.7077C95.6658 96.9187 95.7748 97.1647 95.8229 97.4258C95.8487 97.5812 95.8354 97.7406 95.7842 97.8895C95.7329 98.0385 95.6455 98.1724 95.5296 98.2791C95.4018 98.4008 95.234 98.4717 95.0576 98.4785C94.8812 98.4852 94.7085 98.4274 94.5718 98.3158C94.4306 98.1976 94.3247 98.0428 94.2659 97.8683C94.2071 97.6938 94.1976 97.5064 94.2385 97.3269C94.3189 96.9558 94.5131 96.619 94.794 96.3635C95.0941 96.0883 95.4574 95.8912 95.8518 95.7899C96.2462 95.6885 96.6595 95.686 97.0551 95.7825C97.4872 95.8827 97.8781 96.1131 98.1751 96.4425C98.3398 96.6132 98.4602 96.8216 98.5259 97.0495C98.5915 97.2775 98.6004 97.5181 98.5518 97.7502C98.4838 97.9936 98.3388 98.2084 98.1385 98.3624C98.0325 98.4429 97.9095 98.498 97.7789 98.5234C97.6482 98.5489 97.5135 98.544 97.3851 98.5091C97.2573 98.4678 97.1401 98.399 97.0416 98.3077C96.9432 98.2163 96.8659 98.1046 96.8151 97.9802C96.7049 97.74 96.6685 97.4723 96.7107 97.2113C96.7755 96.9518 96.9102 96.715 97.1002 96.5267C97.2903 96.3384 97.5283 96.2059 97.7884 96.1435C98.2944 95.996 98.8293 95.978 99.344 96.0913C99.6231 96.1298 99.8882 96.2376 100.115 96.4049C100.342 96.5722 100.523 96.7937 100.642 97.0491C100.762 97.3271 100.768 97.6414 100.657 97.9235C100.593 98.0673 100.492 98.1921 100.366 98.2864C100.24 98.3807 100.091 98.4413 99.9351 98.4624C99.7736 98.4941 99.6062 98.4725 99.4581 98.4007C99.31 98.329 99.1892 98.211 99.114 98.0647C99.0532 97.9184 99.0254 97.7604 99.0327 97.6022C99.04 97.4439 99.0822 97.2892 99.1562 97.1491C99.2977 96.8796 99.5036 96.6492 99.7556 96.4784C100.008 96.3077 100.298 96.2018 100.601 96.1702C100.909 96.1387 101.22 96.1839 101.507 96.3018C101.794 96.4196 102.047 96.6065 102.244 96.8458C102.455 97.0868 102.588 97.3857 102.626 97.7035C102.65 97.8763 102.623 98.0523 102.549 98.2101C102.474 98.3679 102.356 98.5007 102.207 98.5924C102.127 98.6402 102.037 98.6705 101.945 98.6814C101.852 98.6923 101.758 98.6836 101.668 98.6558C101.581 98.626 101.5 98.5791 101.431 98.5179C101.362 98.4567 101.305 98.3823 101.265 98.2991C101.184 98.1446 101.146 97.9709 101.156 97.7966C101.167 97.6224 101.224 97.4542 101.323 97.3102C101.51 97.0484 101.751 96.8291 102.03 96.6669C102.294 96.4992 102.575 96.3589 102.867 96.248C103.17 96.1186 103.499 96.0612 103.828 96.0805C104.156 96.0998 104.476 96.1952 104.762 96.3591C104.912 96.4477 105.044 96.5656 105.148 96.7059C105.252 96.8462 105.328 97.0059 105.369 97.1757C105.41 97.3455 105.417 97.5219 105.389 97.6945C105.361 97.867 105.299 98.0322 105.206 98.1802C105.097 98.3259 104.95 98.4391 104.781 98.5074C104.613 98.5757 104.428 98.5967 104.248 98.568C104.066 98.544 103.895 98.4667 103.756 98.3458C103.615 98.2206 103.521 98.0508 103.49 97.8647C103.47 97.6911 103.486 97.5153 103.538 97.3486C103.591 97.1818 103.677 97.028 103.793 96.8969C104.004 96.6436 104.276 96.4476 104.583 96.3269C104.883 96.2012 105.209 96.1498 105.534 96.1771C105.858 96.2043 106.171 96.3095 106.446 96.4835C106.722 96.6516 106.953 96.8851 107.117 97.1634C107.281 97.4417 107.375 97.7562 107.388 98.0791C107.398 98.2519 107.359 98.424 107.274 98.5751C107.19 98.7262 107.064 98.8502 106.912 98.9324C106.752 99.0126 106.569 99.0365 106.394 99.0002C106.303 98.9782 106.217 98.9356 106.145 98.8758C106.072 98.8159 106.014 98.7403 105.975 98.6547C105.925 98.4954 105.915 98.3264 105.945 98.1623C105.975 97.9981 106.044 97.8437 106.147 97.7125C106.318 97.4691 106.519 97.2478 106.744 97.0535C107.166 96.6286 107.727 96.3702 108.324 96.3258C108.627 96.3094 108.927 96.3841 109.187 96.5402C109.447 96.702 109.642 96.9503 109.737 97.2413C109.789 97.3874 109.806 97.5432 109.789 97.6971C109.772 97.8509 109.721 97.999 109.638 98.1302C109.55 98.2561 109.434 98.3601 109.299 98.4344C109.164 98.5087 109.014 98.5514 108.861 98.5591C108.704 98.5693 108.547 98.5324 108.411 98.4533C108.275 98.3741 108.165 98.2563 108.096 98.1147C108.039 97.9779 108.012 97.8301 108.017 97.6818C108.022 97.5335 108.06 97.3881 108.127 97.2558C108.243 97.0104 108.413 96.7946 108.625 96.625C108.837 96.4554 109.085 96.3363 109.35 96.2769C109.601 96.2022 109.866 96.1823 110.126 96.2185C110.386 96.2547 110.636 96.3462 110.857 96.4869C111.069 96.6336 111.24 96.8326 111.353 97.0647C111.466 97.2967 111.516 97.5539 111.501 97.8113C111.498 97.9414 111.469 98.0695 111.414 98.1876C111.36 98.3057 111.281 98.4111 111.184 98.4972C111.086 98.5833 110.972 98.6482 110.848 98.6878C110.724 98.7273 110.593 98.7406 110.464 98.7269C110.329 98.6955 110.21 98.6147 110.132 98.5004C110.053 98.386 110.02 98.2465 110.04 98.1091C110.072 97.8716 110.172 97.6483 110.327 97.4658C110.598 97.1212 110.948 96.848 111.348 96.6702C111.535 96.5777 111.737 96.5234 111.945 96.5106C112.152 96.4977 112.36 96.5265 112.556 96.5953C112.752 96.664 112.932 96.7714 113.086 96.911C113.24 97.0506 113.364 97.2196 113.452 97.408C113.512 97.5924 113.527 97.7886 113.495 97.98C113.463 98.1713 113.385 98.3521 113.268 98.5069C113.153 98.66 112.989 98.769 112.803 98.8158C112.707 98.8447 112.605 98.8442 112.51 98.8143C112.415 98.7843 112.331 98.7264 112.27 98.648C112.234 98.5643 112.216 98.4744 112.216 98.3835C112.216 98.2927 112.234 98.2028 112.27 98.1191C112.313 97.9653 112.373 97.8163 112.447 97.6747C112.581 97.4059 112.77 97.1688 113.003 96.9791C113.207 96.8096 113.453 96.6975 113.715 96.6543C113.977 96.6112 114.246 96.6385 114.494 96.7336C114.697 96.7988 114.878 96.9214 115.013 97.0865C115.149 97.2517 115.234 97.4524 115.258 97.6647C115.268 97.8186 115.245 97.9727 115.19 98.117C115.136 98.2614 115.052 98.3927 114.944 98.5025C114.868 98.5987 114.768 98.6734 114.654 98.7192C114.54 98.765 114.416 98.7803 114.294 98.7636Z" fill="#263238"/>
<path d="M92.3539 97.257L85.1528 124.468L108.049 125.19L115.251 98.3103L92.3539 97.257Z" fill="white"/>
<path d="M92.3519 97.257L91.4363 97.3403L84.1719 122.483L85.2763 123.995L92.3519 97.257Z" fill="#E0E0E0"/>
<path d="M107.498 104.193H114.934C115.284 104.186 115.628 104.285 115.921 104.477C116.214 104.668 116.443 104.943 116.578 105.266C116.878 105.941 117.024 106.674 117.007 107.412C117.319 107.852 117.493 108.375 117.509 108.914C117.584 110.272 117.584 111.633 117.509 112.991C117.435 113.205 116.651 113.42 116.651 113.42C116.928 114.053 116.954 114.768 116.724 115.42C116.513 115.898 116.13 116.281 115.651 116.492C115.651 116.492 114.651 118.779 113.651 119.066C112.847 119.214 112.022 119.214 111.218 119.066C110.715 119.066 102.634 114.922 102.634 114.922V113.99C102.634 113.99 99.7721 114.278 99.7032 112.702C99.6343 111.126 101.561 111.221 101.561 111.221H105.92C105.92 111.221 101.131 111.414 100.698 110.698C100.264 109.981 99.6976 108.264 101.163 107.981C102.629 107.698 109.243 107.693 109.243 107.693L112.854 108.29H113.425L112.981 106.699C112.981 106.699 109.187 106.689 108.627 106.62C108.067 106.551 106.993 106.405 106.993 105.405C106.993 104.405 107.498 104.193 107.498 104.193Z" fill="#FFC09D"/>
<path d="M111.69 111.661C111.233 111.743 110.768 111.774 110.304 111.756C109.446 111.771 108.257 111.756 106.949 111.661C105.641 111.567 104.458 111.439 103.61 111.321C103.147 111.28 102.689 111.189 102.245 111.049C102.708 111.029 103.172 111.051 103.631 111.117C104.485 111.19 105.663 111.289 106.965 111.374C108.267 111.458 109.45 111.51 110.304 111.551C110.768 111.542 111.233 111.579 111.69 111.661Z" fill="#654742"/>
<path d="M111.006 115.676C110.593 115.713 110.177 115.7 109.766 115.639C109.007 115.572 107.955 115.451 106.81 115.263C105.664 115.075 104.627 114.865 103.884 114.687C103.475 114.617 103.076 114.498 102.696 114.332C103.108 114.339 103.518 114.391 103.918 114.488C104.782 114.635 105.766 114.797 106.849 114.981C107.933 115.164 108.922 115.305 109.785 115.441C110.199 115.477 110.608 115.555 111.006 115.676Z" fill="#654742"/>
<path d="M117.237 110.054C117.237 110.044 117.348 110.085 117.498 110.21C117.719 110.402 117.886 110.647 117.985 110.921C118.147 111.348 118.136 111.821 117.954 112.24C117.838 112.507 117.662 112.744 117.439 112.932C117.217 113.119 116.954 113.254 116.672 113.324L116.755 113.119C116.924 113.405 117.031 113.723 117.068 114.053C117.105 114.383 117.072 114.717 116.97 115.033C116.869 115.349 116.702 115.64 116.479 115.886C116.257 116.133 115.985 116.33 115.682 116.464L115.765 116.369C115.512 117.338 114.948 118.197 114.158 118.814C113.937 118.99 113.694 119.14 113.436 119.258C113.347 119.308 113.249 119.341 113.148 119.357C113.127 119.32 113.52 119.148 114.054 118.681C114.767 118.054 115.274 117.226 115.508 116.306L115.524 116.238L115.592 116.211C115.854 116.088 116.089 115.913 116.28 115.695C116.472 115.478 116.617 115.223 116.706 114.947C116.795 114.671 116.826 114.38 116.797 114.091C116.769 113.803 116.681 113.523 116.54 113.27L116.435 113.108L116.623 113.066C116.868 113.007 117.096 112.895 117.292 112.736C117.488 112.578 117.646 112.377 117.754 112.15C117.925 111.783 117.953 111.365 117.832 110.978C117.701 110.632 117.498 110.317 117.237 110.054Z" fill="#654742"/>
<path d="M79.9991 26.5842C81.381 24.7305 83.185 23.233 85.2615 22.2159C86.3032 21.7189 87.4488 21.4786 88.6024 21.5149C89.756 21.5512 90.8842 21.8633 91.8926 22.4249C93.4126 23.3842 94.5135 25.0174 96.1961 25.5575C98.5384 26.2949 100.887 24.6066 103.29 24.108C103.786 24.0095 104.382 23.9889 104.691 24.3809C104.796 24.5715 104.859 24.7824 104.877 24.9994C104.893 25.2152 104.862 25.4318 104.787 25.6348L103.895 29.9298C104.454 30.035 105.029 30.012 105.578 29.8625C106.127 29.713 106.635 29.4409 107.063 29.0666C107.582 31.6397 107.174 34.3132 105.911 36.6144C106.012 36.529 106.129 36.4655 106.255 36.4279C106.382 36.3903 106.515 36.3796 106.645 36.3963C106.776 36.413 106.902 36.4569 107.015 36.5251C107.128 36.5932 107.225 36.6842 107.301 36.7922C107.588 37.2465 107.712 37.7852 107.651 38.3191C107.612 39.9617 107.221 41.5768 106.504 43.0553C105.788 44.5338 104.762 45.8414 103.497 46.8896C102.232 47.9379 100.756 48.7024 99.1705 49.1316C97.5845 49.5608 95.9249 49.6447 94.3037 49.3776" fill="#1B2024"/>
<path d="M82.2741 26.7507C80.7853 26.2815 79.1832 26.3156 77.7145 26.8476C76.2458 27.3797 74.9922 28.3803 74.1467 29.6952C73.0215 31.5281 72.8214 33.7657 72.4191 35.9089C72.0169 38.0521 71.2258 40.2652 69.4149 41.4312C67.9504 42.3838 66.0046 42.4813 64.6885 43.6207C64.0237 44.2922 63.5584 45.1354 63.3447 46.0561C63.1311 46.9767 63.1775 47.9384 63.4788 48.8336C64.1082 50.6212 65.0725 52.2719 66.32 53.6972C65.9918 54.2563 65.5555 54.7443 65.0368 55.1328C64.5181 55.5213 63.9274 55.8024 63.2991 55.9598C64.2187 57.0453 65.47 57.7974 66.8598 58.0998C67.7502 58.1807 68.6216 58.4046 69.4405 58.7631C70.1698 59.2728 70.7315 59.9877 71.0546 60.8175C71.2769 61.2792 71.6002 61.6847 72.0006 62.0041C72.4009 62.3234 72.8681 62.5484 73.3674 62.6623C73.8666 62.7762 74.3853 62.7761 74.8847 62.662C75.3842 62.5479 75.8518 62.3227 76.2527 62.0032C77.1116 61.3171 77.8999 60.547 78.606 59.7041C78.5082 60.2481 78.6211 60.8086 78.9218 61.2717C79.2224 61.7348 79.6882 62.0656 80.2242 62.1968C80.7974 61.8874 81.288 61.4447 81.6546 60.9059C82.0213 60.3671 82.2531 59.748 82.3306 59.101" fill="#1B2024"/>
<path d="M99.696 74.6783L104.286 65.415L102.863 61.3638C102.863 61.3638 109.752 57.7894 107.395 50.4938C106.259 46.9716 103.328 39.9061 100.602 33.5427C99.1884 30.242 96.5839 27.5948 93.3066 26.1283C90.0293 24.6618 86.3198 24.4837 82.9171 25.6294L82.216 25.865C74.8049 28.8483 73.1982 36.8083 76.386 44.135L85.7015 71.3572L99.696 74.6783Z" fill="#FFC09D"/>
<path d="M100.827 40.3131C100.926 40.599 100.91 40.9122 100.782 41.1862C100.653 41.4601 100.423 41.6731 100.14 41.7798C100.003 41.8378 99.857 41.8681 99.7089 41.8688C99.5608 41.8695 99.4141 41.8406 99.2773 41.7837C99.1406 41.7269 99.0166 41.6433 98.9126 41.5379C98.8086 41.4324 98.7268 41.3073 98.6719 41.1698C98.5727 40.8841 98.5889 40.5711 98.7169 40.2972C98.8449 40.0233 99.0747 39.8102 99.3574 39.7031C99.4938 39.6448 99.6404 39.6145 99.7886 39.6138C99.9369 39.6131 100.084 39.6421 100.221 39.699C100.358 39.756 100.482 39.8397 100.586 39.9454C100.69 40.051 100.772 40.1764 100.826 40.3142" fill="#263238"/>
<path d="M100.156 38.0918C100.068 38.2806 99.0267 37.9451 97.8434 38.3462C96.6556 38.7295 95.9911 39.6318 95.8145 39.5295C95.73 39.4873 95.7822 39.1806 96.0667 38.7784C96.4598 38.2513 97.0062 37.8585 97.6311 37.654C98.246 37.445 98.9115 37.4372 99.5311 37.6318C99.99 37.7884 100.198 38.0062 100.154 38.094" fill="#263238"/>
<path d="M89.9332 43.9286C90.0325 44.2144 90.0162 44.5278 89.8877 44.8018C89.7592 45.0758 89.5287 45.2888 89.2454 45.3952C89.1092 45.4533 88.9628 45.4836 88.8147 45.4843C88.6666 45.485 88.5199 45.456 88.3831 45.3992C88.2464 45.3424 88.1224 45.2588 88.0184 45.1534C87.9144 45.0479 87.8326 44.9228 87.7776 44.7852C87.6785 44.4995 87.6948 44.1863 87.8231 43.9124C87.9513 43.6385 88.1814 43.4254 88.4643 43.3186C88.6006 43.2603 88.7473 43.23 88.8955 43.2293C89.0438 43.2286 89.1907 43.2575 89.3276 43.3145C89.4645 43.3714 89.5886 43.4552 89.6926 43.5609C89.7966 43.6665 89.8784 43.7908 89.9332 43.9286Z" fill="#263238"/>
<path d="M88.6588 41.6072C88.5921 41.805 87.5188 41.5839 86.3877 42.1105C85.2566 42.6372 84.6866 43.5883 84.4988 43.5072C84.4099 43.4739 84.4277 43.165 84.6688 42.7294C85.0016 42.1625 85.502 41.7126 86.101 41.4417C86.6904 41.1667 87.3519 41.0866 87.9899 41.2128C88.461 41.3239 88.6943 41.5139 88.6566 41.605" fill="#263238"/>
<path d="M95.8682 50.01C96.4266 49.6047 97.0335 49.271 97.6748 49.0166C97.9671 48.8844 98.2304 48.7277 98.2137 48.5044C98.1345 48.1832 97.9588 47.894 97.7104 47.6755L96.0437 45.6755C94.5583 44.0045 93.2095 42.2169 92.0104 40.33C93.627 41.8773 95.1162 43.5523 96.4637 45.3388C97.0341 46.0463 97.5793 46.7222 98.0993 47.3666C98.4119 47.6678 98.6086 48.0694 98.6548 48.5011C98.6469 48.6224 98.6113 48.7404 98.5508 48.8459C98.4904 48.9514 98.4066 49.0417 98.306 49.11C98.1539 49.2116 97.9897 49.2938 97.8171 49.3544C97.1982 49.6552 96.5438 49.8762 95.8693 50.0122" fill="#263238"/>
<path d="M87.0503 37.4803C87.0425 37.8414 85.8081 38.0858 84.4758 38.7214C83.1303 39.3292 82.1425 40.1125 81.8658 39.8858C81.737 39.7747 81.8314 39.407 82.1792 38.9425C82.6553 38.3573 83.2584 37.8882 83.9428 37.5707C84.6272 37.2532 85.3749 37.0958 86.1292 37.1103C86.7081 37.1436 87.0492 37.3103 87.0503 37.4803Z" fill="#263238"/>
<path d="M98.7509 34.9135C98.6331 35.2524 97.7242 35.2468 96.7387 35.5646C95.7387 35.8468 94.9887 36.3546 94.7031 36.1368C94.5731 36.0257 94.6131 35.7146 94.8909 35.3379C95.2759 34.8691 95.7915 34.5251 96.3723 34.3497C96.9531 34.1742 97.5729 34.1751 98.1531 34.3524C98.5975 34.5124 98.7998 34.7513 98.752 34.9079" fill="#263238"/>
<mask id="mask1_36_1297" style="mask-type:luminance" maskUnits="userSpaceOnUse" x="93" y="51" width="6" height="3">
<path d="M98.2521 51.3281H93.3299V53.9637H98.2521V51.3281Z" fill="white"/>
</mask>
<g mask="url(#mask1_36_1297)">
<path d="M93.4 51.3311C93.59 51.2578 94.0255 52.5533 95.4411 53.0922C96.8567 53.6311 98.18 53.0322 98.25 53.21C98.2955 53.2844 98.0278 53.5633 97.4522 53.7744C96.6993 54.0397 95.8769 54.0307 95.13 53.7489C94.4136 53.4784 93.8303 52.9402 93.5033 52.2478C93.2733 51.7256 93.3089 51.3567 93.4 51.3311Z" fill="#263238"/>
</g>
<path d="M102.892 61.3629C99.5579 62.5531 95.9454 62.7244 92.5139 61.8551C92.5139 61.8551 96.5139 66.3296 103.541 63.2374L102.892 61.3629Z" fill="#654742"/>
<path d="M78.7671 49.3233C78.6259 49.3133 73.277 49.5277 75.1093 54.4422C76.9415 59.3566 81.4937 56.5044 81.4526 56.3633C81.4115 56.2222 78.7671 49.3233 78.7671 49.3233Z" fill="#FFC09D"/>
<path d="M79.3632 55.0559C79.3365 55.0559 79.2998 55.1503 79.1798 55.2703C79.0084 55.4316 78.7819 55.5214 78.5465 55.5214C77.9554 55.5214 77.2132 54.8626 76.861 53.9881C76.6912 53.5721 76.6179 53.1231 76.6465 52.6748C76.6359 52.5047 76.6665 52.3345 76.7357 52.1788C76.805 52.023 76.9108 51.8863 77.0443 51.7803C77.1328 51.718 77.2403 51.6885 77.3483 51.6971C77.4562 51.7056 77.5578 51.7516 77.6354 51.827C77.7465 51.9381 77.7554 52.0492 77.7876 52.0492C77.8198 52.0492 77.861 51.9292 77.7454 51.7403C77.6718 51.6294 77.563 51.5464 77.4365 51.5048C77.351 51.4789 77.2613 51.4702 77.1724 51.4791C77.0835 51.4881 76.9973 51.5146 76.9187 51.557C76.7317 51.6717 76.5773 51.8325 76.4701 52.0239C76.3629 52.2153 76.3066 52.431 76.3065 52.6503C76.2537 53.1542 76.3274 53.6633 76.521 54.1314C76.6596 54.5785 76.9274 54.9745 77.2906 55.2697C77.6538 55.5649 78.0962 55.746 78.5621 55.7903C78.7083 55.7796 78.8501 55.7358 78.977 55.6623C79.1038 55.5888 79.2123 55.4874 79.2943 55.3659C79.4032 55.1814 79.3876 55.0614 79.3632 55.0559Z" fill="#654742"/>
<path d="M79.8733 31.7763C81.2053 31.1746 82.7067 31.061 84.1141 31.4554L85.0204 31.7112L97.7479 30.5032C100.337 28.3955 97.8612 26.2009 95.0564 25.9176C91.7705 25.5854 87.8386 24.1913 84.5842 24.8063C81.3298 25.4213 76.1692 28.5525 74.6389 32.5862C74.0977 33.9392 73.8269 35.3852 73.8419 36.8424C74.2143 40.2789 75.0252 43.6536 76.2549 46.8841C76.8086 47.8357 77.5386 48.6731 78.4057 49.3514C79.5003 49.1213 79.7358 48.1765 79.3536 47.1505L78.3231 43.013C79.2492 41.9429 79.8006 40.5996 79.8932 39.1874C79.9831 37.7874 79.6056 36.3972 78.82 35.235C78.5986 34.9609 78.4481 34.6364 78.382 34.2903C78.316 33.943 78.3359 33.5849 78.4399 33.2471C78.5445 32.9061 78.7297 32.5954 78.9798 32.3411C79.2289 32.085 79.5351 31.8915 79.8733 31.7763Z" fill="#1B2024"/>
<path d="M82.3361 31.1976C82.6535 29.6798 85.1639 28.7806 86.6357 29.2896C88.0491 29.953 89.2969 30.9229 90.2886 32.1288C90.7874 32.7279 91.4007 33.2216 92.0926 33.581C92.7844 33.9403 93.541 34.1582 94.318 34.2217C95.873 34.1726 97.5185 32.9315 99.0381 33.4776C99.669 33.8114 100.282 34.1777 100.875 34.5748C101.387 34.7828 101.94 34.8718 102.491 34.8351C103.042 34.7985 103.578 34.6371 104.058 34.3631C105.01 33.8146 105.874 33.1258 106.621 32.3199C103.536 32.2744 100.697 30.7434 98.0202 29.2043C95.3433 27.6652 92.5815 26.0494 89.505 25.8108C86.4285 25.5722 82.9662 27.1865 82.197 30.1681" fill="#1B2024"/>
<path d="M70.5177 58.3282C70.6693 58.3383 70.8216 58.3295 70.971 58.3021C71.392 58.2169 71.7654 57.9762 72.0168 57.6279C72.2105 57.3541 72.3341 57.0369 72.3767 56.7042C72.4192 56.3715 72.3795 56.0334 72.2608 55.7197C71.9427 54.871 71.3935 54.1282 70.6754 53.5752C69.7806 52.882 68.9756 52.0801 68.2789 51.1881C67.8699 50.6601 67.5781 50.0512 67.4227 49.4017C67.2674 48.7523 67.252 48.0772 67.3778 47.4213C67.559 46.7086 67.9594 46.0707 68.5224 45.5976C69.0961 45.128 69.7453 44.7591 70.4424 44.5066C71.8869 44.0962 73.2661 43.4834 74.5388 42.6862C75.1158 42.228 75.5228 41.5898 75.6949 40.8733C75.8362 40.1597 75.8249 39.4242 75.6618 38.7152C75.3881 37.2991 74.7399 36.0031 74.4531 34.6498C74.2941 33.9884 74.2412 33.3059 74.2965 32.6279C74.3548 31.9745 74.5927 31.35 74.9839 30.8234C75.3486 30.3727 75.7992 29.999 76.3096 29.7239C76.8199 29.4488 77.3798 29.2778 77.9568 29.2209C78.8965 29.117 79.8476 29.2277 80.7384 29.5447C81.4009 29.7742 82.0427 30.0597 82.6567 30.3982C83.1611 30.6738 83.5412 30.9145 83.7938 31.0712C83.9282 31.1481 84.0559 31.236 84.1756 31.334C84.0305 31.2858 83.8911 31.2215 83.7602 31.1423C83.456 30.9824 83.0721 30.7828 82.5872 30.5377C81.9779 30.2163 81.3426 29.9466 80.6881 29.7316C79.8253 29.4505 78.9111 29.3632 78.0107 29.4759C77.473 29.5347 76.9522 29.699 76.4781 29.9595C76.0041 30.2199 75.586 30.5713 75.248 30.9936C74.9213 31.5202 74.7127 32.1113 74.6366 32.7264C74.5605 33.3414 74.6186 33.9656 74.8071 34.5559C75.093 35.8569 75.7526 37.1483 76.0456 38.6357C76.2311 39.4032 76.2479 40.2019 76.0949 40.9766C75.9065 41.776 75.4537 42.4884 74.8099 42.9985C73.5086 43.8292 72.0915 44.4627 70.6046 44.8785C69.942 45.1145 69.3237 45.4599 68.7753 45.9004C68.2675 46.323 67.9039 46.8933 67.7353 47.5321C67.6185 48.141 67.6308 48.7675 67.7715 49.3713C67.9122 49.975 68.1782 50.5425 68.5522 51.0369C69.2251 51.9183 70.0037 52.7137 70.8704 53.4054C71.6105 54.0011 72.1695 54.7918 72.4842 55.6882C72.6022 56.0326 72.6338 56.4008 72.5761 56.7603C72.5185 57.1198 72.3734 57.4597 72.1536 57.7499C72.0133 57.9303 71.8388 58.0813 71.6401 58.1941C71.4413 58.3068 71.2223 58.3793 70.9955 58.4072C70.8322 58.4198 70.6683 58.3927 70.5177 58.3282Z" fill="#353E46"/>
<path d="M101.892 26.9521C101.866 27.0273 101.828 27.0983 101.781 27.1625C101.654 27.3553 101.507 27.5349 101.344 27.6984C100.738 28.3083 99.987 28.755 99.1618 28.9972C98.1898 29.3234 97.144 29.3603 96.1515 29.1032C95.159 28.8462 94.2626 28.3064 93.5712 27.5494C93.0546 26.9653 92.4994 26.4165 91.9093 25.9067C91.319 25.4673 90.6275 25.1837 89.8986 25.0821C89.1697 24.9806 88.427 25.0643 87.739 25.3255C87.1773 25.5362 86.6687 25.8679 86.2494 26.297C85.8301 26.7261 85.5102 27.2422 85.3125 27.8087C85.0329 28.5911 84.9633 29.4333 85.1105 30.2511C85.2235 30.8274 85.368 31.1225 85.335 31.1358C85.302 31.1492 85.305 31.0617 85.2064 30.9361C85.091 30.7211 84.9993 30.4941 84.9329 30.2593C84.7265 29.4215 84.7614 28.5424 85.0337 27.7236C85.2284 27.1066 85.5593 26.5413 86.002 26.0696C86.4447 25.5978 86.9878 25.2316 87.5912 24.9982C88.3329 24.7081 89.1365 24.6126 89.9256 24.7209C90.7146 24.8292 91.4628 25.1376 92.0989 25.6168C92.7033 26.1338 93.2689 26.6943 93.7915 27.2938C94.2717 27.821 94.855 28.244 95.5053 28.5367C96.6492 29.0215 97.925 29.0984 99.1188 28.7545C99.9145 28.5433 100.65 28.1494 101.266 27.604C101.682 27.2109 101.858 26.9274 101.892 26.9521Z" fill="#353E46"/>
<path d="M69.2146 39.2644C69.2327 39.1736 69.2399 39.081 69.2361 38.9885C69.2364 38.7359 69.1383 38.4931 68.9627 38.3116C68.8323 38.1661 68.6598 38.0648 68.4691 38.022C68.2784 37.9791 68.0792 37.9968 67.8991 38.0727C67.6678 38.188 67.4771 38.3709 67.3522 38.5971C67.2272 38.8233 67.1739 39.0821 67.1992 39.3393C67.2549 39.6494 67.3992 39.9368 67.6148 40.1666C67.8304 40.3964 68.1079 40.5588 68.4139 40.6341C68.7771 40.7126 69.1528 40.7143 69.5168 40.639C69.8808 40.5638 70.225 40.4133 70.5274 40.1972C71.2292 39.7401 71.7666 39.0708 72.0613 38.2868C72.3316 37.4178 72.4016 36.4988 72.2659 35.5989C72.1383 34.6557 72.1557 33.6986 72.3176 32.7607C72.4922 31.8853 72.8193 31.0473 73.2839 30.2851C73.9434 29.2082 74.8727 28.3222 75.9798 27.7147C77.0869 27.1072 78.3335 26.7994 79.5961 26.8216C79.8705 26.828 80.1441 26.854 80.4149 26.8995C80.5914 26.93 80.6876 26.9546 80.6837 26.9718C80.6799 26.9889 80.2892 26.9502 79.5982 26.9693C78.6178 27.0068 77.6538 27.2335 76.7594 27.637C75.4353 28.2366 74.3303 29.2329 73.5972 30.488C73.1596 31.2167 72.8541 32.0168 72.6946 32.8516C72.5463 33.7577 72.5324 34.6808 72.6534 35.591C72.7951 36.5451 72.7176 37.5189 72.427 38.4387C72.0971 39.2924 71.5025 40.0181 70.7303 40.5095C70.3866 40.7479 69.9962 40.9108 69.585 40.9875C69.1738 41.0642 68.751 41.053 68.3444 40.9546C67.9818 40.8613 67.6544 40.6639 67.4027 40.3868C67.1511 40.1096 66.986 39.7648 66.9281 39.3949C66.9047 39.0856 66.9771 38.7766 67.1353 38.5098C67.2936 38.2431 67.5302 38.0315 67.8128 37.9038C68.0578 37.7963 68.3344 37.7856 68.5869 37.8739C68.7818 37.948 68.9548 38.0702 69.0899 38.2291C69.1875 38.3343 69.262 38.4587 69.3087 38.5944C69.3555 38.73 69.3735 38.8739 69.3615 39.0169C69.3022 39.229 69.2341 39.2949 69.2146 39.2644Z" fill="#353E46"/>
<path d="M61.5718 97.4097C61.5718 97.4097 58.3851 108.944 57.6829 111.76C56.9807 114.575 56.9874 121.118 58.5718 123.054C60.1563 124.991 65.4385 126.221 65.4385 126.221C65.4385 126.221 75.7796 121.171 79.3018 115.011C82.824 108.851 92.454 92.0886 92.454 92.0886L89.4029 83.7197L73.374 99.0264L73.5418 97.0375L61.5718 97.4097Z" fill="#FFC09D"/>
<path d="M95.0538 57.3348C95.3212 57.1999 95.6311 57.1766 95.9156 57.27C96.2001 57.3633 96.436 57.5656 96.5716 57.8325L105.794 76.207L103.423 77.2592L94.5416 58.827C94.4149 58.5607 94.3976 58.2553 94.4934 57.9764C94.5891 57.6975 94.7903 57.4671 95.0538 57.3348Z" fill="#263238"/>
<path d="M88.8854 84.2526L97.5098 75.356H105.779L111.075 82.3482C111.075 82.3482 108.563 82.8193 107.669 81.4693L106.502 79.8026C106.502 79.8026 107.669 82.3582 107.041 83.6237C107.041 83.6237 105.801 86.5437 105.597 86.8582C105.459 87.185 105.203 87.4476 104.88 87.5934C104.557 87.7391 104.19 87.7571 103.854 87.6437C102.777 87.4659 101.101 86.5859 101.28 85.9582C101.336 85.7754 101.441 85.6117 101.584 85.4851C101.727 85.3586 101.903 85.2743 102.091 85.2415L99.5732 84.8804C99.5732 84.8804 97.0398 89.4704 95.5121 90.5471C94.5692 91.2062 93.5364 91.7264 92.4454 92.0915L88.8854 84.2526Z" fill="#FFC09D"/>
<path d="M73.6843 98.7675C73.7054 98.8097 72.9888 99.1441 71.8888 99.783C70.4631 100.619 69.1234 101.594 67.8888 102.693C66.6582 103.798 65.5381 105.019 64.5443 106.341C63.7799 107.356 63.3721 108.031 63.3299 108.007C63.3903 107.832 63.4728 107.665 63.5754 107.51C63.7477 107.195 64.0199 106.756 64.3865 106.227C66.3061 103.474 68.8443 101.208 71.7976 99.6119C72.2413 99.3688 72.6971 99.1485 73.1632 98.9519C73.3293 98.8707 73.5041 98.8088 73.6843 98.7675Z" fill="#654742"/>
<path d="M99.4062 77.9398C99.8019 77.8254 100.209 77.7568 100.621 77.7354C101.374 77.6409 102.411 77.5365 103.562 77.432C103.852 77.3954 104.146 77.3954 104.436 77.432C104.717 77.474 104.983 77.5818 105.214 77.7465C105.591 78.0185 105.892 78.3822 106.088 78.8032C106.289 79.1665 106.421 79.564 106.476 79.9754C106.43 79.9965 106.277 79.5409 105.921 78.892C105.719 78.5168 105.43 78.1955 105.078 77.9554C104.875 77.821 104.644 77.7333 104.403 77.6987C104.133 77.6709 103.861 77.6742 103.592 77.7087C102.441 77.8132 101.398 77.8865 100.645 77.9309C100.234 77.9754 99.8185 77.9784 99.4062 77.9398Z" fill="#654742"/>
<path d="M105.988 86.4087C105.942 86.4087 106.025 85.7809 105.967 84.7809C105.936 84.1959 105.856 83.6145 105.726 83.0431C105.693 82.7005 105.589 82.3684 105.422 82.0677C105.254 81.7669 105.027 81.504 104.753 81.2954C104.434 81.1256 104.092 81.0039 103.737 80.9342L102.717 80.7042C102.145 80.5755 101.564 80.4864 100.98 80.4376C100.44 80.4187 99.9004 80.4328 99.3629 80.4798C99.4932 80.4052 99.6379 80.3591 99.7873 80.3443C100.184 80.2671 100.587 80.2339 100.991 80.2454C101.588 80.2654 102.183 80.3372 102.768 80.4598C103.102 80.5231 103.444 80.5954 103.8 80.682C104.182 80.7523 104.551 80.8833 104.893 81.0698C105.24 81.2812 105.512 81.5959 105.671 81.9698C105.81 82.3012 105.911 82.647 105.974 83.0009C106.09 83.5866 106.153 84.1816 106.162 84.7787C106.168 85.1811 106.144 85.5834 106.088 85.982C106.08 86.1289 106.046 86.2732 105.988 86.4087Z" fill="#654742"/>
<path d="M103.001 83.4202C103.124 83.964 103.169 84.5227 103.132 85.0791V85.2413L102.965 85.2102C102.873 85.193 102.78 85.1841 102.687 85.1835C102.255 85.1943 101.845 85.3747 101.546 85.6857C101.316 85.9268 101.237 86.1357 101.195 86.1302C101.152 86.1246 101.174 85.8791 101.399 85.5646C101.55 85.3645 101.744 85.2014 101.967 85.088C102.19 84.9745 102.437 84.9137 102.687 84.9102C102.799 84.9115 102.911 84.9238 103.02 84.9468L102.858 85.0779C102.825 84.5213 102.874 83.9629 103.001 83.4202Z" fill="#654742"/>
<path d="M102.998 83.6987C102.439 83.7222 101.878 83.6958 101.324 83.6198C100.764 83.6343 100.204 83.6013 99.6493 83.5209C100.191 83.331 100.77 83.272 101.339 83.3487C101.912 83.3353 102.48 83.4551 102.998 83.6987Z" fill="#654742"/>
<path d="M99.783 83.2685C99.8079 83.8682 99.68 84.4643 99.4116 85.0008C99.2212 85.5704 98.8866 86.0807 98.4404 86.4819C98.3772 86.4352 98.7952 85.7752 99.161 84.8963C99.5269 84.0174 99.7043 83.253 99.783 83.2685Z" fill="#654742"/>
<path d="M81.9017 130.599C81.9017 130.599 70.9529 120.891 66.1484 120.969C61.344 121.047 45.5806 120.005 52.1906 141.84C58.8573 163.858 70.7851 197.524 71.1095 196.315L91.6406 187.293L83.3073 155.975C83.3073 155.975 111.296 156.29 116.697 155.578C122.098 154.865 132.21 147.753 132.21 147.753L130.603 187.324L152.061 186.131C152.061 186.131 155.075 138.6 155.938 128.829C156.692 120.324 147.135 110.779 137.391 112.929C131.022 114.337 108.266 130.403 108.266 130.403L81.9017 130.599Z" fill="#0A1124"/>
<path d="M132.954 126.714C132.978 127.06 132.969 127.407 132.927 127.751C132.89 128.483 132.844 129.431 132.781 130.567C132.67 132.948 132.592 136.233 132.536 139.872C132.479 143.511 132.41 146.801 132.285 149.188C132.227 150.381 132.154 151.344 132.092 152.009C132.08 152.356 132.034 152.701 131.957 153.04C131.924 152.695 131.924 152.348 131.957 152.003C131.978 151.271 132.003 150.323 132.036 149.182C132.072 146.738 132.124 143.478 132.182 139.872C132.24 136.234 132.354 132.943 132.532 130.562C132.615 129.374 132.71 128.411 132.794 127.747C132.82 127.399 132.874 127.054 132.954 126.714Z" fill="#455A64"/>
<path d="M132.072 145.245C131.695 144.921 131.374 144.535 131.125 144.104C129.794 142.09 129.061 139.74 129.013 137.326C128.972 136.831 129.016 136.331 129.144 135.851C129.201 139.198 130.218 142.459 132.076 145.245H132.072Z" fill="#455A64"/>
<path d="M102.895 153.259C102.858 153.259 102.816 152.72 102.649 151.753C102.417 150.388 102.04 149.053 101.524 147.769C100.762 145.866 99.7157 144.089 98.4206 142.499C96.8301 140.557 94.8825 138.937 92.6828 137.727C88.0306 135.031 83.9328 132.394 81.075 130.321C79.6462 129.29 78.5195 128.406 77.7784 127.757C77.4017 127.443 77.1239 127.176 76.9361 126.998C76.7484 126.82 76.6539 126.72 76.6639 126.71C76.6739 126.7 77.0984 127.044 77.8673 127.653C78.6361 128.261 79.7772 129.113 81.2217 130.118C84.1106 132.118 88.2217 134.728 92.8662 137.419C94.0209 138.057 95.1112 138.806 96.1217 139.654C98.65 141.809 100.592 144.569 101.768 147.677C102.27 148.983 102.614 150.345 102.794 151.733C102.877 152.219 102.873 152.607 102.898 152.863C102.911 152.994 102.91 153.127 102.895 153.259Z" fill="#455A64"/>
<path d="M110.455 130.078C110.365 130.394 110.246 130.7 110.099 130.994C109.842 131.569 109.497 132.417 109.099 133.469C107.02 138.975 106.054 144.838 106.257 150.719C106.293 151.845 106.351 152.755 106.409 153.386C106.457 153.711 106.471 154.041 106.451 154.369C106.358 154.054 106.296 153.729 106.268 153.401C106.168 152.774 106.074 151.863 106.001 150.735C105.658 144.812 106.634 138.886 108.859 133.386C109.288 132.339 109.67 131.497 109.97 130.941C110.104 130.639 110.266 130.35 110.455 130.078Z" fill="#455A64"/>
<path d="M69.2934 127.231C69.3982 127.286 69.4978 127.351 69.5912 127.424L70.4134 128.021C70.5912 128.152 70.7901 128.299 71.0045 128.465C71.2189 128.632 71.4234 128.837 71.6589 129.047C72.2005 129.51 72.7095 130.01 73.1823 130.543C73.449 130.839 73.7264 131.148 74.0145 131.47C74.2812 131.81 74.5478 132.171 74.8256 132.543C74.9667 132.732 75.1078 132.92 75.2501 133.113C75.3923 133.307 75.5123 133.521 75.6423 133.731C75.9045 134.155 76.1867 134.579 76.4478 135.034C77.5416 137.022 78.4627 139.101 79.2012 141.246C80.0123 143.518 80.6189 145.737 81.1745 147.747C81.7078 149.757 82.1956 151.567 82.6034 153.101C83.0112 154.635 83.3567 155.854 83.6034 156.696C83.7145 157.1 83.8078 157.424 83.8812 157.675C83.9214 157.787 83.9479 157.903 83.9601 158.021C83.9041 157.915 83.8602 157.803 83.8289 157.688C83.7456 157.442 83.6401 157.122 83.5045 156.724C83.2223 155.887 82.8612 154.662 82.4212 153.15L80.9401 147.816C80.3845 145.816 79.7623 143.594 78.9567 141.338C78.2243 139.205 77.3141 137.138 76.2356 135.158C75.979 134.708 75.7023 134.283 75.4456 133.86C75.3145 133.651 75.1945 133.441 75.0578 133.242C74.9212 133.043 74.7801 132.86 74.639 132.677C74.3612 132.305 74.1056 131.939 73.8434 131.603C73.5612 131.284 73.2878 130.97 73.0323 130.676C72.5671 130.143 72.0707 129.638 71.5456 129.164C71.3156 128.95 71.1167 128.74 70.9067 128.568C70.6967 128.395 70.509 128.253 70.3312 128.112C69.9978 127.85 69.7401 127.635 69.5412 127.479C69.4523 127.403 69.3695 127.32 69.2934 127.231Z" fill="#455A64"/>
<path d="M81.6805 130.405C85.585 132.985 89.8861 133.592 94.4872 134.472C97.1405 134.98 99.9139 135.441 102.505 134.676C108.061 133.038 113.422 126.722 116.992 124.466L102.103 128.244L81.6805 130.405Z" fill="#8C1320"/>
<path d="M172.009 198.643H167.41V5.99444C167.424 5.39195 167.677 4.81971 168.112 4.40315C168.548 3.98658 169.131 3.7597 169.733 3.77222C170.336 3.7597 170.918 3.98658 171.354 4.40315C171.79 4.81971 172.042 5.39195 172.056 5.99444V198.643H172.009Z" fill="#455A64"/>
<path d="M167.267 22.0052H126.75V36.2852H167.267V22.0052Z" fill="#263238"/>
<path d="M212.623 6.71008H172.106V20.9901H212.623V6.71008Z" fill="#263238"/>
<path d="M172.106 46.0158L194.711 48.9203V28.8802L172.106 31.7847V46.0158Z" fill="#263238"/>
<path d="M190.163 39.2864L185.174 33.7675V36.1875L174.719 36.5752V41.803L185.174 42.3352V44.7075L190.163 39.2864Z" fill="#A1B4B7"/>
<path d="M206.43 12.8127L198.734 8.35938V10.3438H178.451V15.3294H198.734V17.266L206.43 12.8127Z" fill="#A1B4B7"/>
<path d="M133.234 29.2711L140.931 24.8177V26.7544H161.213V31.74H140.931V33.6766L133.234 29.2711Z" fill="#A1B4B7"/>
</g>
</svg>
